%TF.GenerationSoftware,KiCad,Pcbnew,(5.99.0-10766-geeb405c196)*%
%TF.CreationDate,2021-06-27T17:30:59+04:00*%
%TF.ProjectId,FTDI_Basic_Breakout-3.3V,46544449-5f42-4617-9369-635f42726561,rev?*%
%TF.SameCoordinates,Original*%
%TF.FileFunction,Soldermask,Top*%
%TF.FilePolarity,Negative*%
%FSLAX46Y46*%
G04 Gerber Fmt 4.6, Leading zero omitted, Abs format (unit mm)*
G04 Created by KiCad (PCBNEW (5.99.0-10766-geeb405c196)) date 2021-06-27 17:30:59*
%MOMM*%
%LPD*%
G01*
G04 APERTURE LIST*
G04 Aperture macros list*
%AMRoundRect*
0 Rectangle with rounded corners*
0 $1 Rounding radius*
0 $2 $3 $4 $5 $6 $7 $8 $9 X,Y pos of 4 corners*
0 Add a 4 corners polygon primitive as box body*
4,1,4,$2,$3,$4,$5,$6,$7,$8,$9,$2,$3,0*
0 Add four circle primitives for the rounded corners*
1,1,$1+$1,$2,$3*
1,1,$1+$1,$4,$5*
1,1,$1+$1,$6,$7*
1,1,$1+$1,$8,$9*
0 Add four rect primitives between the rounded corners*
20,1,$1+$1,$2,$3,$4,$5,0*
20,1,$1+$1,$4,$5,$6,$7,0*
20,1,$1+$1,$6,$7,$8,$9,0*
20,1,$1+$1,$8,$9,$2,$3,0*%
%AMFreePoly0*
4,1,22,0.550000,-0.750000,0.000000,-0.750000,0.000000,-0.745033,-0.079941,-0.743568,-0.215256,-0.701293,-0.333266,-0.622738,-0.424486,-0.514219,-0.481581,-0.384460,-0.499164,-0.250000,-0.500000,-0.250000,-0.500000,0.250000,-0.499164,0.250000,-0.499963,0.256109,-0.478152,0.396186,-0.417904,0.524511,-0.324060,0.630769,-0.204165,0.706417,-0.067858,0.745374,0.000000,0.744959,0.000000,0.750000,
0.550000,0.750000,0.550000,-0.750000,0.550000,-0.750000,$1*%
%AMFreePoly1*
4,1,20,0.000000,0.744959,0.073905,0.744508,0.209726,0.703889,0.328688,0.626782,0.421226,0.519385,0.479903,0.390333,0.500000,0.250000,0.500000,-0.250000,0.499851,-0.262216,0.476331,-0.402017,0.414519,-0.529596,0.319384,-0.634700,0.198574,-0.708877,0.061801,-0.746166,0.000000,-0.745033,0.000000,-0.750000,-0.550000,-0.750000,-0.550000,0.750000,0.000000,0.750000,0.000000,0.744959,
0.000000,0.744959,$1*%
G04 Aperture macros list end*
%ADD10R,1.700000X1.700000*%
%ADD11O,1.700000X1.700000*%
%ADD12R,0.450000X1.750000*%
%ADD13O,0.800000X0.800000*%
%ADD14R,1.300000X0.450000*%
%ADD15O,2.000000X1.450000*%
%ADD16O,1.800000X1.150000*%
%ADD17RoundRect,0.200000X-0.200000X-0.275000X0.200000X-0.275000X0.200000X0.275000X-0.200000X0.275000X0*%
%ADD18RoundRect,0.250000X-0.250000X-0.475000X0.250000X-0.475000X0.250000X0.475000X-0.250000X0.475000X0*%
%ADD19RoundRect,0.225000X-0.225000X-0.250000X0.225000X-0.250000X0.225000X0.250000X-0.225000X0.250000X0*%
%ADD20FreePoly0,0.000000*%
%ADD21R,1.000000X1.500000*%
%ADD22FreePoly1,0.000000*%
%ADD23RoundRect,0.200000X0.200000X0.275000X-0.200000X0.275000X-0.200000X-0.275000X0.200000X-0.275000X0*%
%ADD24RoundRect,0.218750X-0.218750X-0.256250X0.218750X-0.256250X0.218750X0.256250X-0.218750X0.256250X0*%
%ADD25RoundRect,0.218750X0.218750X0.256250X-0.218750X0.256250X-0.218750X-0.256250X0.218750X-0.256250X0*%
G04 APERTURE END LIST*
D10*
%TO.C,J2*%
X121400000Y-94675000D03*
D11*
X121400000Y-97215000D03*
X121400000Y-99755000D03*
X121400000Y-102295000D03*
X121400000Y-104835000D03*
X121400000Y-107375000D03*
%TD*%
D12*
%TO.C,U1*%
X125775000Y-104600000D03*
X126425000Y-104600000D03*
X127075000Y-104600000D03*
X127725000Y-104600000D03*
X128375000Y-104600000D03*
X129025000Y-104600000D03*
X129675000Y-104600000D03*
X130325000Y-104600000D03*
X130975000Y-104600000D03*
X131625000Y-104600000D03*
X132275000Y-104600000D03*
X132925000Y-104600000D03*
X133575000Y-104600000D03*
X134225000Y-104600000D03*
X134225000Y-97400000D03*
X133575000Y-97400000D03*
X132925000Y-97400000D03*
X132275000Y-97400000D03*
X131625000Y-97400000D03*
X130975000Y-97400000D03*
X130325000Y-97400000D03*
X129675000Y-97400000D03*
X129025000Y-97400000D03*
X128375000Y-97400000D03*
X127725000Y-97400000D03*
X127075000Y-97400000D03*
X126425000Y-97400000D03*
X125775000Y-97400000D03*
%TD*%
D13*
%TO.C,J1*%
X138700000Y-98500000D03*
X138700000Y-103500000D03*
D14*
X137600000Y-102300000D03*
X137600000Y-101650000D03*
X137600000Y-101000000D03*
X137600000Y-100350000D03*
X137600000Y-99700000D03*
D15*
X137650000Y-97275000D03*
X137650000Y-104725000D03*
D16*
X141450000Y-104875000D03*
X141450000Y-97125000D03*
%TD*%
D17*
%TO.C,R2*%
X136175000Y-95000000D03*
X137825000Y-95000000D03*
%TD*%
D18*
%TO.C,C2*%
X126650000Y-94000000D03*
X128550000Y-94000000D03*
%TD*%
D19*
%TO.C,C3*%
X133225000Y-106500000D03*
X134775000Y-106500000D03*
%TD*%
D20*
%TO.C,JP1*%
X137400000Y-108000000D03*
D21*
X138700000Y-108000000D03*
D22*
X140000000Y-108000000D03*
%TD*%
D23*
%TO.C,R1*%
X134825000Y-95000000D03*
X133175000Y-95000000D03*
%TD*%
D24*
%TO.C,D1*%
X133212500Y-93500000D03*
X134787500Y-93500000D03*
%TD*%
D19*
%TO.C,C1*%
X126625000Y-95600000D03*
X128175000Y-95600000D03*
%TD*%
D25*
%TO.C,D2*%
X137787500Y-93500000D03*
X136212500Y-93500000D03*
%TD*%
M02*
