%TF.GenerationSoftware,KiCad,Pcbnew,(5.99.0-10766-geeb405c196)*%
%TF.CreationDate,2021-06-27T17:30:59+04:00*%
%TF.ProjectId,FTDI_Basic_Breakout-3.3V,46544449-5f42-4617-9369-635f42726561,rev?*%
%TF.SameCoordinates,Original*%
%TF.FileFunction,Legend,Top*%
%TF.FilePolarity,Positive*%
%FSLAX46Y46*%
G04 Gerber Fmt 4.6, Leading zero omitted, Abs format (unit mm)*
G04 Created by KiCad (PCBNEW (5.99.0-10766-geeb405c196)) date 2021-06-27 17:30:59*
%MOMM*%
%LPD*%
G01*
G04 APERTURE LIST*
%ADD10C,0.150000*%
%ADD11C,0.120000*%
G04 APERTURE END LIST*
D10*
X141466666Y-107616666D02*
X141133333Y-107616666D01*
X141100000Y-107950000D01*
X141133333Y-107916666D01*
X141200000Y-107883333D01*
X141366666Y-107883333D01*
X141433333Y-107916666D01*
X141466666Y-107950000D01*
X141500000Y-108016666D01*
X141500000Y-108183333D01*
X141466666Y-108250000D01*
X141433333Y-108283333D01*
X141366666Y-108316666D01*
X141200000Y-108316666D01*
X141133333Y-108283333D01*
X141100000Y-108250000D01*
X141700000Y-107616666D02*
X141933333Y-108316666D01*
X142166666Y-107616666D01*
X134166666Y-107616666D02*
X134600000Y-107616666D01*
X134366666Y-107883333D01*
X134466666Y-107883333D01*
X134533333Y-107916666D01*
X134566666Y-107950000D01*
X134600000Y-108016666D01*
X134600000Y-108183333D01*
X134566666Y-108250000D01*
X134533333Y-108283333D01*
X134466666Y-108316666D01*
X134266666Y-108316666D01*
X134200000Y-108283333D01*
X134166666Y-108250000D01*
X134900000Y-108250000D02*
X134933333Y-108283333D01*
X134900000Y-108316666D01*
X134866666Y-108283333D01*
X134900000Y-108250000D01*
X134900000Y-108316666D01*
X135166666Y-107616666D02*
X135600000Y-107616666D01*
X135366666Y-107883333D01*
X135466666Y-107883333D01*
X135533333Y-107916666D01*
X135566666Y-107950000D01*
X135600000Y-108016666D01*
X135600000Y-108183333D01*
X135566666Y-108250000D01*
X135533333Y-108283333D01*
X135466666Y-108316666D01*
X135266666Y-108316666D01*
X135200000Y-108283333D01*
X135166666Y-108250000D01*
X135800000Y-107616666D02*
X136033333Y-108316666D01*
X136266666Y-107616666D01*
X123850000Y-95183333D02*
X123883333Y-95216666D01*
X123916666Y-95316666D01*
X123916666Y-95383333D01*
X123883333Y-95483333D01*
X123816666Y-95550000D01*
X123750000Y-95583333D01*
X123616666Y-95616666D01*
X123516666Y-95616666D01*
X123383333Y-95583333D01*
X123316666Y-95550000D01*
X123250000Y-95483333D01*
X123216666Y-95383333D01*
X123216666Y-95316666D01*
X123250000Y-95216666D01*
X123283333Y-95183333D01*
X123216666Y-94983333D02*
X123216666Y-94583333D01*
X123916666Y-94783333D02*
X123216666Y-94783333D01*
X123883333Y-94383333D02*
X123916666Y-94283333D01*
X123916666Y-94116666D01*
X123883333Y-94050000D01*
X123850000Y-94016666D01*
X123783333Y-93983333D01*
X123716666Y-93983333D01*
X123650000Y-94016666D01*
X123616666Y-94050000D01*
X123583333Y-94116666D01*
X123550000Y-94250000D01*
X123516666Y-94316666D01*
X123483333Y-94350000D01*
X123416666Y-94383333D01*
X123350000Y-94383333D01*
X123283333Y-94350000D01*
X123250000Y-94316666D01*
X123216666Y-94250000D01*
X123216666Y-94083333D01*
X123250000Y-93983333D01*
X123916666Y-100600000D02*
X123216666Y-100600000D01*
X123216666Y-100433333D01*
X123250000Y-100333333D01*
X123316666Y-100266666D01*
X123383333Y-100233333D01*
X123516666Y-100200000D01*
X123616666Y-100200000D01*
X123750000Y-100233333D01*
X123816666Y-100266666D01*
X123883333Y-100333333D01*
X123916666Y-100433333D01*
X123916666Y-100600000D01*
X123216666Y-100000000D02*
X123216666Y-99600000D01*
X123916666Y-99800000D02*
X123216666Y-99800000D01*
X123916666Y-98966666D02*
X123583333Y-99200000D01*
X123916666Y-99366666D02*
X123216666Y-99366666D01*
X123216666Y-99100000D01*
X123250000Y-99033333D01*
X123283333Y-99000000D01*
X123350000Y-98966666D01*
X123450000Y-98966666D01*
X123516666Y-99000000D01*
X123550000Y-99033333D01*
X123583333Y-99100000D01*
X123583333Y-99366666D01*
X123650000Y-105366666D02*
X123650000Y-104833333D01*
X123916666Y-105100000D02*
X123383333Y-105100000D01*
X123216666Y-104600000D02*
X123916666Y-104366666D01*
X123216666Y-104133333D01*
X123250000Y-108133333D02*
X123216666Y-108200000D01*
X123216666Y-108300000D01*
X123250000Y-108400000D01*
X123316666Y-108466666D01*
X123383333Y-108500000D01*
X123516666Y-108533333D01*
X123616666Y-108533333D01*
X123750000Y-108500000D01*
X123816666Y-108466666D01*
X123883333Y-108400000D01*
X123916666Y-108300000D01*
X123916666Y-108233333D01*
X123883333Y-108133333D01*
X123850000Y-108100000D01*
X123616666Y-108100000D01*
X123616666Y-108233333D01*
X123916666Y-107800000D02*
X123216666Y-107800000D01*
X123916666Y-107400000D01*
X123216666Y-107400000D01*
X123916666Y-107066666D02*
X123216666Y-107066666D01*
X123216666Y-106900000D01*
X123250000Y-106800000D01*
X123316666Y-106733333D01*
X123383333Y-106700000D01*
X123516666Y-106666666D01*
X123616666Y-106666666D01*
X123750000Y-106700000D01*
X123816666Y-106733333D01*
X123883333Y-106800000D01*
X123916666Y-106900000D01*
X123916666Y-107066666D01*
%TO.C,svg2mod*%
G36*
X122806174Y-96710769D02*
G01*
X122809044Y-96671865D01*
X122813819Y-96633149D01*
X122820488Y-96594713D01*
X122829035Y-96556651D01*
X122839440Y-96519054D01*
X122851676Y-96482013D01*
X122865716Y-96445617D01*
X122881524Y-96409954D01*
X122899064Y-96375109D01*
X122918291Y-96341167D01*
X122939162Y-96308209D01*
X122961624Y-96276316D01*
X122985624Y-96245562D01*
X123011104Y-96216024D01*
X123038003Y-96187771D01*
X123066256Y-96160872D01*
X123095795Y-96135392D01*
X123126548Y-96111391D01*
X123158442Y-96088929D01*
X123191400Y-96068059D01*
X123225342Y-96048831D01*
X123260186Y-96031292D01*
X123295850Y-96015483D01*
X123332245Y-96001444D01*
X123369287Y-95989207D01*
X123406883Y-95978803D01*
X123444945Y-95970256D01*
X123483381Y-95963586D01*
X123522098Y-95958811D01*
X123561002Y-95955941D01*
X123600000Y-95954984D01*
X123638998Y-95955941D01*
X123677902Y-95958811D01*
X123716619Y-95963586D01*
X123755055Y-95970256D01*
X123793117Y-95978803D01*
X123830713Y-95989207D01*
X123867755Y-96001444D01*
X123904150Y-96015483D01*
X123939814Y-96031292D01*
X123974658Y-96048831D01*
X124008600Y-96068059D01*
X124041558Y-96088929D01*
X124073452Y-96111391D01*
X124104205Y-96135392D01*
X124133744Y-96160872D01*
X124161997Y-96187771D01*
X124188896Y-96216024D01*
X124214376Y-96245562D01*
X124238376Y-96276316D01*
X124260838Y-96308209D01*
X124281709Y-96341167D01*
X124300936Y-96375109D01*
X124318476Y-96409954D01*
X124334284Y-96445617D01*
X124348324Y-96482013D01*
X124360560Y-96519054D01*
X124370965Y-96556651D01*
X124379512Y-96594713D01*
X124386181Y-96633149D01*
X124390956Y-96671865D01*
X124393826Y-96710769D01*
X124394784Y-96749768D01*
X124394784Y-97650232D01*
X124393826Y-97689231D01*
X124390956Y-97728135D01*
X124386181Y-97766851D01*
X124379512Y-97805287D01*
X124370965Y-97843349D01*
X124360560Y-97880946D01*
X124348324Y-97917987D01*
X124334284Y-97954383D01*
X124318476Y-97990046D01*
X124300936Y-98024891D01*
X124281709Y-98058833D01*
X124260838Y-98091791D01*
X124238376Y-98123684D01*
X124214376Y-98154438D01*
X124188896Y-98183976D01*
X124161997Y-98212229D01*
X124133744Y-98239128D01*
X124104205Y-98264608D01*
X124073452Y-98288609D01*
X124041558Y-98311071D01*
X124008600Y-98331941D01*
X123974658Y-98351169D01*
X123939814Y-98368708D01*
X123904150Y-98384517D01*
X123867754Y-98398556D01*
X123830713Y-98410793D01*
X123793117Y-98421197D01*
X123755055Y-98429744D01*
X123716619Y-98436414D01*
X123677902Y-98441189D01*
X123638998Y-98444059D01*
X123600000Y-98445016D01*
X123561002Y-98444059D01*
X123522098Y-98441189D01*
X123483381Y-98436414D01*
X123444945Y-98429744D01*
X123406883Y-98421197D01*
X123369287Y-98410793D01*
X123332246Y-98398556D01*
X123295850Y-98384517D01*
X123260186Y-98368708D01*
X123225342Y-98351169D01*
X123191400Y-98331941D01*
X123158442Y-98311071D01*
X123126548Y-98288609D01*
X123095795Y-98264608D01*
X123066256Y-98239128D01*
X123038003Y-98212229D01*
X123011104Y-98183976D01*
X122985624Y-98154438D01*
X122961624Y-98123684D01*
X122939162Y-98091791D01*
X122918291Y-98058833D01*
X122899064Y-98024891D01*
X122881524Y-97990046D01*
X122865716Y-97954383D01*
X122851676Y-97917987D01*
X122839440Y-97880946D01*
X122829035Y-97843349D01*
X122820488Y-97805287D01*
X122813819Y-97766851D01*
X122809044Y-97728135D01*
X122806174Y-97689231D01*
X122805216Y-97650232D01*
X122805216Y-97463356D01*
X123317847Y-97463356D01*
X123317847Y-97650166D01*
X123882153Y-97650166D01*
X123882153Y-97575365D01*
X123653873Y-97575365D01*
X123653873Y-97442815D01*
X123882153Y-97320342D01*
X123882153Y-97240501D01*
X123877502Y-97240501D01*
X123637982Y-97373051D01*
X123613662Y-97327851D01*
X123579459Y-97293793D01*
X123536922Y-97272428D01*
X123487604Y-97265306D01*
X123436702Y-97271012D01*
X123394586Y-97288130D01*
X123361255Y-97316660D01*
X123337139Y-97355783D01*
X123322670Y-97404682D01*
X123317847Y-97463356D01*
X122805216Y-97463356D01*
X122805216Y-96754097D01*
X123317847Y-96754097D01*
X123317847Y-96841689D01*
X123534113Y-96976952D01*
X123317847Y-97112990D01*
X123317847Y-97200194D01*
X123597675Y-97021523D01*
X123882153Y-97204457D01*
X123882153Y-97116478D01*
X123662012Y-96976952D01*
X123882153Y-96838200D01*
X123882153Y-96749834D01*
X123597675Y-96932381D01*
X123317847Y-96754097D01*
X122805216Y-96754097D01*
X122805216Y-96749768D01*
X122806174Y-96710769D01*
G37*
G36*
X123530818Y-97348295D02*
G01*
X123564343Y-97372858D01*
X123585854Y-97411276D01*
X123593024Y-97461031D01*
X123593024Y-97575365D01*
X123379083Y-97575365D01*
X123379083Y-97461418D01*
X123386350Y-97409435D01*
X123407376Y-97371307D01*
X123441386Y-97347908D01*
X123487604Y-97340108D01*
X123530818Y-97348295D01*
G37*
G36*
X122806174Y-101895266D02*
G01*
X122809044Y-101856362D01*
X122813819Y-101817646D01*
X122820488Y-101779210D01*
X122829035Y-101741148D01*
X122839440Y-101703551D01*
X122851676Y-101666510D01*
X122865716Y-101630114D01*
X122881524Y-101594451D01*
X122899064Y-101559606D01*
X122918291Y-101525664D01*
X122939162Y-101492707D01*
X122961624Y-101460813D01*
X122985624Y-101430059D01*
X123011104Y-101400521D01*
X123038003Y-101372268D01*
X123066256Y-101345369D01*
X123095795Y-101319889D01*
X123126548Y-101295889D01*
X123158442Y-101273426D01*
X123191400Y-101252556D01*
X123225342Y-101233328D01*
X123260186Y-101215789D01*
X123295850Y-101199980D01*
X123332245Y-101185941D01*
X123369287Y-101173704D01*
X123406883Y-101163300D01*
X123444945Y-101154753D01*
X123483381Y-101148083D01*
X123522098Y-101143308D01*
X123561002Y-101140438D01*
X123600000Y-101139481D01*
X123638998Y-101140438D01*
X123677902Y-101143308D01*
X123716619Y-101148083D01*
X123755055Y-101154753D01*
X123793117Y-101163300D01*
X123830713Y-101173704D01*
X123867755Y-101185941D01*
X123904150Y-101199980D01*
X123939814Y-101215789D01*
X123974658Y-101233328D01*
X124008600Y-101252556D01*
X124041558Y-101273426D01*
X124073452Y-101295889D01*
X124104205Y-101319889D01*
X124133744Y-101345369D01*
X124161997Y-101372268D01*
X124188896Y-101400521D01*
X124214376Y-101430059D01*
X124238376Y-101460813D01*
X124260838Y-101492707D01*
X124281709Y-101525664D01*
X124300936Y-101559606D01*
X124318476Y-101594451D01*
X124334284Y-101630114D01*
X124348324Y-101666510D01*
X124360560Y-101703551D01*
X124370965Y-101741148D01*
X124379512Y-101779210D01*
X124386181Y-101817646D01*
X124390956Y-101856362D01*
X124393826Y-101895266D01*
X124394784Y-101934265D01*
X124394784Y-102865735D01*
X124393826Y-102904734D01*
X124390956Y-102943638D01*
X124386181Y-102982354D01*
X124379512Y-103020790D01*
X124370965Y-103058852D01*
X124360560Y-103096449D01*
X124348324Y-103133490D01*
X124334284Y-103169886D01*
X124318476Y-103205549D01*
X124300936Y-103240394D01*
X124281709Y-103274336D01*
X124260838Y-103307293D01*
X124238376Y-103339187D01*
X124214376Y-103369941D01*
X124188896Y-103399479D01*
X124161997Y-103427732D01*
X124133744Y-103454631D01*
X124104205Y-103480111D01*
X124073452Y-103504112D01*
X124041558Y-103526574D01*
X124008600Y-103547444D01*
X123974658Y-103566672D01*
X123939814Y-103584211D01*
X123904150Y-103600020D01*
X123867754Y-103614059D01*
X123830713Y-103626296D01*
X123793117Y-103636700D01*
X123755055Y-103645247D01*
X123716619Y-103651917D01*
X123677902Y-103656692D01*
X123638998Y-103659562D01*
X123600000Y-103660519D01*
X123561002Y-103659562D01*
X123522098Y-103656692D01*
X123483381Y-103651917D01*
X123444945Y-103645247D01*
X123406883Y-103636700D01*
X123369287Y-103626296D01*
X123332246Y-103614059D01*
X123295850Y-103600020D01*
X123260186Y-103584211D01*
X123225342Y-103566672D01*
X123191400Y-103547444D01*
X123158442Y-103526574D01*
X123126548Y-103504112D01*
X123095795Y-103480111D01*
X123066256Y-103454631D01*
X123038003Y-103427732D01*
X123011104Y-103399479D01*
X122985624Y-103369941D01*
X122961624Y-103339187D01*
X122939162Y-103307293D01*
X122918291Y-103274336D01*
X122899064Y-103240394D01*
X122881524Y-103205549D01*
X122865716Y-103169886D01*
X122851676Y-103133490D01*
X122839440Y-103096449D01*
X122829035Y-103058852D01*
X122820488Y-103020790D01*
X122813819Y-102982354D01*
X122809044Y-102943638D01*
X122806174Y-102904734D01*
X122805216Y-102865735D01*
X122805216Y-102429262D01*
X123317847Y-102429262D01*
X123317847Y-102865669D01*
X123379083Y-102865669D01*
X123379083Y-102684673D01*
X123882153Y-102684673D01*
X123882153Y-102610646D01*
X123379083Y-102610646D01*
X123379083Y-102429262D01*
X123317847Y-102429262D01*
X122805216Y-102429262D01*
X122805216Y-101938594D01*
X123317847Y-101938594D01*
X123317847Y-102026186D01*
X123534113Y-102161449D01*
X123317847Y-102297487D01*
X123317847Y-102384691D01*
X123597675Y-102206020D01*
X123882153Y-102388954D01*
X123882153Y-102300975D01*
X123662012Y-102161449D01*
X123882153Y-102022697D01*
X123882153Y-101934331D01*
X123597675Y-102116878D01*
X123317847Y-101938594D01*
X122805216Y-101938594D01*
X122805216Y-101934265D01*
X122806174Y-101895266D01*
G37*
D11*
%TO.C,J2*%
X120070000Y-108705000D02*
X122730000Y-108705000D01*
X120070000Y-95945000D02*
X120070000Y-108705000D01*
X122730000Y-95945000D02*
X122730000Y-108705000D01*
X120070000Y-95945000D02*
X122730000Y-95945000D01*
X120070000Y-94675000D02*
X120070000Y-93345000D01*
X120070000Y-93345000D02*
X121400000Y-93345000D01*
D10*
%TO.C,U1*%
X124675000Y-103875000D02*
X124675000Y-98125000D01*
X135325000Y-98125000D02*
X134675000Y-98125000D01*
X124675000Y-98125000D02*
X125325000Y-98125000D01*
X125250000Y-103875000D02*
X125250000Y-105475000D01*
X124675000Y-103875000D02*
X125250000Y-103875000D01*
X135325000Y-103875000D02*
X134675000Y-103875000D01*
X135325000Y-103875000D02*
X135325000Y-98125000D01*
%TO.C,J1*%
X136675000Y-102075000D02*
X136675000Y-102800000D01*
X138850000Y-105150000D02*
X140250000Y-105150000D01*
X142800000Y-105150000D02*
X142800000Y-104850000D01*
X143250000Y-97150000D02*
X142800000Y-97150000D01*
X142800000Y-97150000D02*
X142800000Y-96850000D01*
X142800000Y-104850000D02*
X143250000Y-104850000D01*
X136675000Y-102800000D02*
X137100000Y-102800000D01*
X142650000Y-105150000D02*
X142800000Y-105150000D01*
X137100000Y-99200000D02*
X137100000Y-98200000D01*
X142800000Y-96850000D02*
X142650000Y-96850000D01*
X140250000Y-96850000D02*
X138850000Y-96850000D01*
X137100000Y-102800000D02*
X137100000Y-103800000D01*
D11*
%TO.C,R2*%
X136762742Y-94477500D02*
X137237258Y-94477500D01*
X136762742Y-95522500D02*
X137237258Y-95522500D01*
%TO.C,C2*%
X127338748Y-94735000D02*
X127861252Y-94735000D01*
X127338748Y-93265000D02*
X127861252Y-93265000D01*
%TO.C,C3*%
X133859420Y-105990000D02*
X134140580Y-105990000D01*
X133859420Y-107010000D02*
X134140580Y-107010000D01*
%TO.C,JP1*%
X137500000Y-109200000D02*
X137800000Y-109500000D01*
X140750000Y-107700000D02*
X140750000Y-108300000D01*
X140100000Y-109000000D02*
X137300000Y-109000000D01*
X137200000Y-109500000D02*
X137800000Y-109500000D01*
X137500000Y-109200000D02*
X137200000Y-109500000D01*
X136650000Y-108300000D02*
X136650000Y-107700000D01*
X137300000Y-107000000D02*
X140100000Y-107000000D01*
X137350000Y-109000000D02*
G75*
G02*
X136650000Y-108300000I0J700000D01*
G01*
X140050000Y-107000000D02*
G75*
G02*
X140750000Y-107700000I0J-700000D01*
G01*
X140750000Y-108300000D02*
G75*
G02*
X140050000Y-109000000I-700000J0D01*
G01*
X136650000Y-107700000D02*
G75*
G02*
X137350000Y-107000000I700000J0D01*
G01*
%TO.C,R1*%
X134237258Y-95522500D02*
X133762742Y-95522500D01*
X134237258Y-94477500D02*
X133762742Y-94477500D01*
%TO.C,D1*%
X132515000Y-92765000D02*
X132515000Y-94235000D01*
X132515000Y-94235000D02*
X134800000Y-94235000D01*
X134800000Y-92765000D02*
X132515000Y-92765000D01*
%TO.C,C1*%
X127259420Y-96110000D02*
X127540580Y-96110000D01*
X127259420Y-95090000D02*
X127540580Y-95090000D01*
%TO.C,D2*%
X136200000Y-94235000D02*
X138485000Y-94235000D01*
X138485000Y-94235000D02*
X138485000Y-92765000D01*
X138485000Y-92765000D02*
X136200000Y-92765000D01*
%TD*%
M02*
