%TF.GenerationSoftware,KiCad,Pcbnew,(5.99.0-10766-geeb405c196)*%
%TF.CreationDate,2021-06-27T17:30:59+04:00*%
%TF.ProjectId,FTDI_Basic_Breakout-3.3V,46544449-5f42-4617-9369-635f42726561,rev?*%
%TF.SameCoordinates,Original*%
%TF.FileFunction,Legend,Bot*%
%TF.FilePolarity,Positive*%
%FSLAX46Y46*%
G04 Gerber Fmt 4.6, Leading zero omitted, Abs format (unit mm)*
G04 Created by KiCad (PCBNEW (5.99.0-10766-geeb405c196)) date 2021-06-27 17:30:59*
%MOMM*%
%LPD*%
G01*
G04 APERTURE LIST*
%ADD10C,0.150000*%
G04 APERTURE END LIST*
D10*
X134533333Y-108550000D02*
X134766666Y-108550000D01*
X134766666Y-108916666D02*
X134766666Y-108216666D01*
X134433333Y-108216666D01*
X134266666Y-108216666D02*
X133866666Y-108216666D01*
X134066666Y-108916666D02*
X134066666Y-108216666D01*
X133633333Y-108916666D02*
X133633333Y-108216666D01*
X133466666Y-108216666D01*
X133366666Y-108250000D01*
X133300000Y-108316666D01*
X133266666Y-108383333D01*
X133233333Y-108516666D01*
X133233333Y-108616666D01*
X133266666Y-108750000D01*
X133300000Y-108816666D01*
X133366666Y-108883333D01*
X133466666Y-108916666D01*
X133633333Y-108916666D01*
X132933333Y-108916666D02*
X132933333Y-108216666D01*
X131833333Y-108550000D02*
X131733333Y-108583333D01*
X131700000Y-108616666D01*
X131666666Y-108683333D01*
X131666666Y-108783333D01*
X131700000Y-108850000D01*
X131733333Y-108883333D01*
X131800000Y-108916666D01*
X132066666Y-108916666D01*
X132066666Y-108216666D01*
X131833333Y-108216666D01*
X131766666Y-108250000D01*
X131733333Y-108283333D01*
X131700000Y-108350000D01*
X131700000Y-108416666D01*
X131733333Y-108483333D01*
X131766666Y-108516666D01*
X131833333Y-108550000D01*
X132066666Y-108550000D01*
X131066666Y-108916666D02*
X131066666Y-108550000D01*
X131100000Y-108483333D01*
X131166666Y-108450000D01*
X131300000Y-108450000D01*
X131366666Y-108483333D01*
X131066666Y-108883333D02*
X131133333Y-108916666D01*
X131300000Y-108916666D01*
X131366666Y-108883333D01*
X131400000Y-108816666D01*
X131400000Y-108750000D01*
X131366666Y-108683333D01*
X131300000Y-108650000D01*
X131133333Y-108650000D01*
X131066666Y-108616666D01*
X130766666Y-108883333D02*
X130700000Y-108916666D01*
X130566666Y-108916666D01*
X130500000Y-108883333D01*
X130466666Y-108816666D01*
X130466666Y-108783333D01*
X130500000Y-108716666D01*
X130566666Y-108683333D01*
X130666666Y-108683333D01*
X130733333Y-108650000D01*
X130766666Y-108583333D01*
X130766666Y-108550000D01*
X130733333Y-108483333D01*
X130666666Y-108450000D01*
X130566666Y-108450000D01*
X130500000Y-108483333D01*
X130166666Y-108916666D02*
X130166666Y-108450000D01*
X130166666Y-108216666D02*
X130200000Y-108250000D01*
X130166666Y-108283333D01*
X130133333Y-108250000D01*
X130166666Y-108216666D01*
X130166666Y-108283333D01*
X129533333Y-108883333D02*
X129600000Y-108916666D01*
X129733333Y-108916666D01*
X129800000Y-108883333D01*
X129833333Y-108850000D01*
X129866666Y-108783333D01*
X129866666Y-108583333D01*
X129833333Y-108516666D01*
X129800000Y-108483333D01*
X129733333Y-108450000D01*
X129600000Y-108450000D01*
X129533333Y-108483333D01*
X128466666Y-108550000D02*
X128366666Y-108583333D01*
X128333333Y-108616666D01*
X128300000Y-108683333D01*
X128300000Y-108783333D01*
X128333333Y-108850000D01*
X128366666Y-108883333D01*
X128433333Y-108916666D01*
X128700000Y-108916666D01*
X128700000Y-108216666D01*
X128466666Y-108216666D01*
X128400000Y-108250000D01*
X128366666Y-108283333D01*
X128333333Y-108350000D01*
X128333333Y-108416666D01*
X128366666Y-108483333D01*
X128400000Y-108516666D01*
X128466666Y-108550000D01*
X128700000Y-108550000D01*
X128000000Y-108916666D02*
X128000000Y-108450000D01*
X128000000Y-108583333D02*
X127966666Y-108516666D01*
X127933333Y-108483333D01*
X127866666Y-108450000D01*
X127800000Y-108450000D01*
X127300000Y-108883333D02*
X127366666Y-108916666D01*
X127500000Y-108916666D01*
X127566666Y-108883333D01*
X127600000Y-108816666D01*
X127600000Y-108550000D01*
X127566666Y-108483333D01*
X127500000Y-108450000D01*
X127366666Y-108450000D01*
X127300000Y-108483333D01*
X127266666Y-108550000D01*
X127266666Y-108616666D01*
X127600000Y-108683333D01*
X126666666Y-108916666D02*
X126666666Y-108550000D01*
X126700000Y-108483333D01*
X126766666Y-108450000D01*
X126900000Y-108450000D01*
X126966666Y-108483333D01*
X126666666Y-108883333D02*
X126733333Y-108916666D01*
X126900000Y-108916666D01*
X126966666Y-108883333D01*
X127000000Y-108816666D01*
X127000000Y-108750000D01*
X126966666Y-108683333D01*
X126900000Y-108650000D01*
X126733333Y-108650000D01*
X126666666Y-108616666D01*
X126333333Y-108916666D02*
X126333333Y-108216666D01*
X126266666Y-108650000D02*
X126066666Y-108916666D01*
X126066666Y-108450000D02*
X126333333Y-108716666D01*
X125666666Y-108916666D02*
X125733333Y-108883333D01*
X125766666Y-108850000D01*
X125800000Y-108783333D01*
X125800000Y-108583333D01*
X125766666Y-108516666D01*
X125733333Y-108483333D01*
X125666666Y-108450000D01*
X125566666Y-108450000D01*
X125500000Y-108483333D01*
X125466666Y-108516666D01*
X125433333Y-108583333D01*
X125433333Y-108783333D01*
X125466666Y-108850000D01*
X125500000Y-108883333D01*
X125566666Y-108916666D01*
X125666666Y-108916666D01*
X124833333Y-108450000D02*
X124833333Y-108916666D01*
X125133333Y-108450000D02*
X125133333Y-108816666D01*
X125100000Y-108883333D01*
X125033333Y-108916666D01*
X124933333Y-108916666D01*
X124866666Y-108883333D01*
X124833333Y-108850000D01*
X124600000Y-108450000D02*
X124333333Y-108450000D01*
X124500000Y-108216666D02*
X124500000Y-108816666D01*
X124466666Y-108883333D01*
X124400000Y-108916666D01*
X124333333Y-108916666D01*
M02*
