%TF.GenerationSoftware,KiCad,Pcbnew,(5.99.0-10766-geeb405c196)*%
%TF.CreationDate,2021-06-27T17:30:59+04:00*%
%TF.ProjectId,FTDI_Basic_Breakout-3.3V,46544449-5f42-4617-9369-635f42726561,rev?*%
%TF.SameCoordinates,Original*%
%TF.FileFunction,Copper,L2,Bot*%
%TF.FilePolarity,Positive*%
%FSLAX46Y46*%
G04 Gerber Fmt 4.6, Leading zero omitted, Abs format (unit mm)*
G04 Created by KiCad (PCBNEW (5.99.0-10766-geeb405c196)) date 2021-06-27 17:30:59*
%MOMM*%
%LPD*%
G01*
G04 APERTURE LIST*
%TA.AperFunction,ComponentPad*%
%ADD10R,1.700000X1.700000*%
%TD*%
%TA.AperFunction,ComponentPad*%
%ADD11O,1.700000X1.700000*%
%TD*%
%TA.AperFunction,ComponentPad*%
%ADD12O,2.000000X1.450000*%
%TD*%
%TA.AperFunction,ComponentPad*%
%ADD13O,1.800000X1.150000*%
%TD*%
%TA.AperFunction,ViaPad*%
%ADD14C,0.800000*%
%TD*%
G04 APERTURE END LIST*
D10*
%TO.P,J2,1,Pin_1*%
%TO.N,/CTS*%
X121400000Y-94675000D03*
D11*
%TO.P,J2,2,Pin_2*%
%TO.N,/RX*%
X121400000Y-97215000D03*
%TO.P,J2,3,Pin_3*%
%TO.N,/DTR*%
X121400000Y-99755000D03*
%TO.P,J2,4,Pin_4*%
%TO.N,/TX*%
X121400000Y-102295000D03*
%TO.P,J2,5,Pin_5*%
%TO.N,/VCCIO*%
X121400000Y-104835000D03*
%TO.P,J2,6,Pin_6*%
%TO.N,GND*%
X121400000Y-107375000D03*
%TD*%
D12*
%TO.P,J1,6,Shield*%
%TO.N,GND*%
X137650000Y-97275000D03*
X137650000Y-104725000D03*
D13*
X141450000Y-104875000D03*
X141450000Y-97125000D03*
%TD*%
D14*
%TO.N,GND*%
X130200000Y-94000000D03*
X132200000Y-100400000D03*
X127800000Y-99000000D03*
X131250000Y-106500000D03*
%TD*%
%TA.AperFunction,Conductor*%
%TO.N,GND*%
G36*
X142434121Y-92528002D02*
G01*
X142480614Y-92581658D01*
X142492000Y-92634000D01*
X142492000Y-96067382D01*
X142471998Y-96135503D01*
X142418342Y-96181996D01*
X142348068Y-96192100D01*
X142297652Y-96173233D01*
X142280744Y-96162315D01*
X142270128Y-96156813D01*
X142089568Y-96084044D01*
X142078127Y-96080655D01*
X141885618Y-96043062D01*
X141877183Y-96042037D01*
X141875672Y-96042000D01*
X141722115Y-96042000D01*
X141706876Y-96046475D01*
X141705671Y-96047865D01*
X141704000Y-96055548D01*
X141704000Y-98189885D01*
X141708475Y-98205124D01*
X141709865Y-98206329D01*
X141717548Y-98208000D01*
X141824413Y-98208000D01*
X141830390Y-98207715D01*
X141974759Y-98193941D01*
X141986493Y-98191682D01*
X142173300Y-98136879D01*
X142184376Y-98132449D01*
X142308308Y-98068620D01*
X142378027Y-98055211D01*
X142443927Y-98081624D01*
X142485087Y-98139473D01*
X142492000Y-98180636D01*
X142492000Y-103817382D01*
X142471998Y-103885503D01*
X142418342Y-103931996D01*
X142348068Y-103942100D01*
X142297652Y-103923233D01*
X142280744Y-103912315D01*
X142270128Y-103906813D01*
X142089568Y-103834044D01*
X142078127Y-103830655D01*
X141885618Y-103793062D01*
X141877183Y-103792037D01*
X141875672Y-103792000D01*
X141722115Y-103792000D01*
X141706876Y-103796475D01*
X141705671Y-103797865D01*
X141704000Y-103805548D01*
X141704000Y-105939885D01*
X141708475Y-105955124D01*
X141709865Y-105956329D01*
X141717548Y-105958000D01*
X141824413Y-105958000D01*
X141830390Y-105957715D01*
X141974759Y-105943941D01*
X141986493Y-105941682D01*
X142173300Y-105886879D01*
X142184376Y-105882449D01*
X142308308Y-105818620D01*
X142378027Y-105805211D01*
X142443927Y-105831624D01*
X142485087Y-105889473D01*
X142492000Y-105930636D01*
X142492000Y-109366000D01*
X142471998Y-109434121D01*
X142418342Y-109480614D01*
X142366000Y-109492000D01*
X120634000Y-109492000D01*
X120565879Y-109471998D01*
X120519386Y-109418342D01*
X120508000Y-109366000D01*
X120508000Y-108646599D01*
X120528002Y-108578478D01*
X120581658Y-108531985D01*
X120651932Y-108521881D01*
X120701421Y-108540155D01*
X120766122Y-108581136D01*
X120775567Y-108586053D01*
X120978406Y-108670694D01*
X120988545Y-108673950D01*
X121128345Y-108706096D01*
X121142422Y-108705257D01*
X121146000Y-108695999D01*
X121146000Y-107642548D01*
X121654000Y-107642548D01*
X121654000Y-108694941D01*
X121658151Y-108709079D01*
X121668798Y-108710774D01*
X121672192Y-108710096D01*
X121883333Y-108648954D01*
X121893259Y-108645143D01*
X122091065Y-108549307D01*
X122100212Y-108543876D01*
X122279041Y-108416083D01*
X122287149Y-108409182D01*
X122441893Y-108253082D01*
X122448706Y-108244933D01*
X122574940Y-108064988D01*
X122580295Y-108055787D01*
X122674399Y-107857156D01*
X122678123Y-107847197D01*
X122735968Y-107640718D01*
X122734430Y-107632351D01*
X122722137Y-107629000D01*
X121672115Y-107629000D01*
X121656876Y-107633475D01*
X121655671Y-107634865D01*
X121654000Y-107642548D01*
X121146000Y-107642548D01*
X121146000Y-107247000D01*
X121166002Y-107178879D01*
X121219658Y-107132386D01*
X121272000Y-107121000D01*
X122719079Y-107121000D01*
X122732610Y-107117027D01*
X122733876Y-107108218D01*
X122686954Y-106927433D01*
X122683419Y-106917395D01*
X122593147Y-106716998D01*
X122587967Y-106707692D01*
X122465218Y-106525366D01*
X122458557Y-106517080D01*
X122306830Y-106358030D01*
X122298873Y-106350990D01*
X122122524Y-106219783D01*
X122109981Y-106212005D01*
X122062628Y-106159107D01*
X122051391Y-106089005D01*
X122079838Y-106023957D01*
X122103122Y-106002409D01*
X122283711Y-105873357D01*
X122446030Y-105709617D01*
X122482150Y-105658128D01*
X122575375Y-105525236D01*
X122575376Y-105525234D01*
X122578439Y-105520868D01*
X122677153Y-105312508D01*
X122739349Y-105090494D01*
X122749752Y-104990679D01*
X136166601Y-104990679D01*
X136227123Y-105187405D01*
X136231344Y-105197751D01*
X136327151Y-105383373D01*
X136333136Y-105392804D01*
X136460296Y-105558521D01*
X136467860Y-105566747D01*
X136622353Y-105707325D01*
X136631264Y-105714088D01*
X136808201Y-105825080D01*
X136818171Y-105830161D01*
X137011973Y-105908069D01*
X137022672Y-105911300D01*
X137228182Y-105953858D01*
X137237321Y-105955061D01*
X137286467Y-105957895D01*
X137290113Y-105958000D01*
X137377885Y-105958000D01*
X137393124Y-105953525D01*
X137394329Y-105952135D01*
X137396000Y-105944452D01*
X137396000Y-104997115D01*
X137394659Y-104992548D01*
X137904000Y-104992548D01*
X137904000Y-105939885D01*
X137908475Y-105955124D01*
X137909865Y-105956329D01*
X137917548Y-105958000D01*
X137978221Y-105958000D01*
X137983816Y-105957751D01*
X138138636Y-105943933D01*
X138149650Y-105941951D01*
X138351121Y-105886835D01*
X138361594Y-105882941D01*
X138550131Y-105793013D01*
X138559746Y-105787327D01*
X138729376Y-105665436D01*
X138737842Y-105658128D01*
X138883204Y-105508127D01*
X138890234Y-105499445D01*
X139006742Y-105326063D01*
X139012121Y-105316278D01*
X139088449Y-105142398D01*
X140075352Y-105142398D01*
X140094870Y-105223385D01*
X140098759Y-105234680D01*
X140179336Y-105411900D01*
X140185283Y-105422242D01*
X140297923Y-105581036D01*
X140305716Y-105590064D01*
X140446347Y-105724689D01*
X140455722Y-105732093D01*
X140619258Y-105837686D01*
X140629872Y-105843187D01*
X140810432Y-105915956D01*
X140821873Y-105919345D01*
X141014382Y-105956938D01*
X141022817Y-105957963D01*
X141024328Y-105958000D01*
X141177885Y-105958000D01*
X141193124Y-105953525D01*
X141194329Y-105952135D01*
X141196000Y-105944452D01*
X141196000Y-105147115D01*
X141191525Y-105131876D01*
X141190135Y-105130671D01*
X141182452Y-105129000D01*
X140090238Y-105129000D01*
X140076707Y-105132973D01*
X140075352Y-105142398D01*
X139088449Y-105142398D01*
X139096082Y-105125009D01*
X139099647Y-105114417D01*
X139127928Y-104996616D01*
X139127223Y-104982530D01*
X139118344Y-104979000D01*
X137922115Y-104979000D01*
X137906876Y-104983475D01*
X137905671Y-104984865D01*
X137904000Y-104992548D01*
X137394659Y-104992548D01*
X137391525Y-104981876D01*
X137390135Y-104980671D01*
X137382452Y-104979000D01*
X136181757Y-104979000D01*
X136167777Y-104983105D01*
X136166601Y-104990679D01*
X122749752Y-104990679D01*
X122763249Y-104861176D01*
X122763500Y-104835000D01*
X122745003Y-104617005D01*
X122744458Y-104610576D01*
X122744457Y-104610572D01*
X122744320Y-104608953D01*
X140070860Y-104608953D01*
X140072007Y-104617005D01*
X140085579Y-104621000D01*
X141177885Y-104621000D01*
X141193124Y-104616525D01*
X141194329Y-104615135D01*
X141196000Y-104607452D01*
X141196000Y-103810115D01*
X141191525Y-103794876D01*
X141190135Y-103793671D01*
X141182452Y-103792000D01*
X141075587Y-103792000D01*
X141069610Y-103792285D01*
X140925241Y-103806059D01*
X140913507Y-103808318D01*
X140726700Y-103863121D01*
X140715625Y-103867551D01*
X140542550Y-103956690D01*
X140532504Y-103963140D01*
X140379411Y-104083395D01*
X140370762Y-104091632D01*
X140243174Y-104238664D01*
X140236238Y-104248388D01*
X140138757Y-104416890D01*
X140133783Y-104427754D01*
X140070860Y-104608953D01*
X122744320Y-104608953D01*
X122744007Y-104605265D01*
X122704586Y-104453384D01*
X136172072Y-104453384D01*
X136172777Y-104467470D01*
X136181656Y-104471000D01*
X137377885Y-104471000D01*
X137393124Y-104466525D01*
X137394329Y-104465135D01*
X137396000Y-104457452D01*
X137396000Y-103510115D01*
X137393030Y-103500000D01*
X137786500Y-103500000D01*
X137787190Y-103506565D01*
X137804546Y-103671693D01*
X137806462Y-103689927D01*
X137865476Y-103871554D01*
X137887120Y-103909042D01*
X137904000Y-103972040D01*
X137904000Y-104452885D01*
X137908475Y-104468124D01*
X137909865Y-104469329D01*
X137917548Y-104471000D01*
X139118243Y-104471000D01*
X139132223Y-104466895D01*
X139133399Y-104459321D01*
X139121846Y-104421769D01*
X139120934Y-104350778D01*
X139158547Y-104290564D01*
X139168215Y-104282784D01*
X139305907Y-104182746D01*
X139305909Y-104182744D01*
X139311251Y-104178863D01*
X139351896Y-104133722D01*
X139434618Y-104041850D01*
X139434619Y-104041849D01*
X139439037Y-104036942D01*
X139534524Y-103871554D01*
X139593538Y-103689927D01*
X139595455Y-103671693D01*
X139612810Y-103506565D01*
X139613500Y-103500000D01*
X139593538Y-103310073D01*
X139534524Y-103128446D01*
X139439037Y-102963058D01*
X139311251Y-102821137D01*
X139305909Y-102817256D01*
X139305907Y-102817254D01*
X139162092Y-102712767D01*
X139162091Y-102712766D01*
X139156750Y-102708886D01*
X139150722Y-102706202D01*
X139150720Y-102706201D01*
X138988318Y-102633895D01*
X138988317Y-102633895D01*
X138982287Y-102631210D01*
X138888887Y-102611357D01*
X138801944Y-102592876D01*
X138801939Y-102592876D01*
X138795487Y-102591504D01*
X138604513Y-102591504D01*
X138598061Y-102592876D01*
X138598056Y-102592876D01*
X138511113Y-102611357D01*
X138417713Y-102631210D01*
X138411683Y-102633895D01*
X138411682Y-102633895D01*
X138249280Y-102706201D01*
X138249278Y-102706202D01*
X138243250Y-102708886D01*
X138237909Y-102712766D01*
X138237908Y-102712767D01*
X138094093Y-102817254D01*
X138094091Y-102817256D01*
X138088749Y-102821137D01*
X137960963Y-102963058D01*
X137865476Y-103128446D01*
X137806462Y-103310073D01*
X137786500Y-103500000D01*
X137393030Y-103500000D01*
X137391525Y-103494876D01*
X137390135Y-103493671D01*
X137382452Y-103492000D01*
X137321779Y-103492000D01*
X137316184Y-103492249D01*
X137161364Y-103506067D01*
X137150350Y-103508049D01*
X136948879Y-103563165D01*
X136938406Y-103567059D01*
X136749869Y-103656987D01*
X136740254Y-103662673D01*
X136570624Y-103784564D01*
X136562158Y-103791872D01*
X136416796Y-103941873D01*
X136409766Y-103950555D01*
X136293258Y-104123937D01*
X136287879Y-104133722D01*
X136203918Y-104324991D01*
X136200353Y-104335583D01*
X136172072Y-104453384D01*
X122704586Y-104453384D01*
X122686084Y-104382098D01*
X122671976Y-104350778D01*
X122593578Y-104176743D01*
X122593577Y-104176741D01*
X122591388Y-104171882D01*
X122462627Y-103980626D01*
X122454437Y-103972040D01*
X122364032Y-103877272D01*
X122303482Y-103813799D01*
X122118504Y-103676171D01*
X122113743Y-103673751D01*
X122110425Y-103671693D01*
X122063071Y-103618796D01*
X122051832Y-103548695D01*
X122080277Y-103483645D01*
X122103564Y-103462093D01*
X122216945Y-103381069D01*
X122283711Y-103333357D01*
X122446030Y-103169617D01*
X122578439Y-102980868D01*
X122677153Y-102772508D01*
X122739349Y-102550494D01*
X122763249Y-102321176D01*
X122763500Y-102295000D01*
X122744007Y-102065265D01*
X122686084Y-101842098D01*
X122591388Y-101631882D01*
X122462627Y-101440626D01*
X122303482Y-101273799D01*
X122118504Y-101136171D01*
X122113743Y-101133751D01*
X122110425Y-101131693D01*
X122063071Y-101078796D01*
X122051832Y-101008695D01*
X122080277Y-100943645D01*
X122103564Y-100922093D01*
X122216945Y-100841069D01*
X122283711Y-100793357D01*
X122446030Y-100629617D01*
X122578439Y-100440868D01*
X122677153Y-100232508D01*
X122739349Y-100010494D01*
X122763249Y-99781176D01*
X122763500Y-99755000D01*
X122744007Y-99525265D01*
X122686084Y-99302098D01*
X122630571Y-99178863D01*
X122593578Y-99096743D01*
X122593577Y-99096741D01*
X122591388Y-99091882D01*
X122462627Y-98900626D01*
X122303482Y-98733799D01*
X122118504Y-98596171D01*
X122113743Y-98593751D01*
X122110425Y-98591693D01*
X122063071Y-98538796D01*
X122051832Y-98468695D01*
X122080277Y-98403645D01*
X122103564Y-98382093D01*
X122204345Y-98310073D01*
X122283711Y-98253357D01*
X122366994Y-98169345D01*
X122442277Y-98093403D01*
X122442278Y-98093402D01*
X122446030Y-98089617D01*
X122549021Y-97942804D01*
X122575375Y-97905236D01*
X122575376Y-97905234D01*
X122578439Y-97900868D01*
X122677153Y-97692508D01*
X122719687Y-97540679D01*
X136166601Y-97540679D01*
X136227123Y-97737405D01*
X136231344Y-97747751D01*
X136327151Y-97933373D01*
X136333136Y-97942804D01*
X136460296Y-98108521D01*
X136467860Y-98116747D01*
X136622353Y-98257325D01*
X136631264Y-98264088D01*
X136808201Y-98375080D01*
X136818171Y-98380161D01*
X137011973Y-98458069D01*
X137022672Y-98461300D01*
X137228182Y-98503858D01*
X137237321Y-98505061D01*
X137286467Y-98507895D01*
X137290113Y-98508000D01*
X137377885Y-98508000D01*
X137393124Y-98503525D01*
X137394329Y-98502135D01*
X137394793Y-98500000D01*
X137786500Y-98500000D01*
X137806462Y-98689927D01*
X137865476Y-98871554D01*
X137960963Y-99036942D01*
X138088749Y-99178863D01*
X138094091Y-99182744D01*
X138094093Y-99182746D01*
X138237908Y-99287233D01*
X138243250Y-99291114D01*
X138249278Y-99293798D01*
X138249280Y-99293799D01*
X138411682Y-99366105D01*
X138417713Y-99368790D01*
X138511113Y-99388643D01*
X138598056Y-99407124D01*
X138598061Y-99407124D01*
X138604513Y-99408496D01*
X138795487Y-99408496D01*
X138801939Y-99407124D01*
X138801944Y-99407124D01*
X138888887Y-99388643D01*
X138982287Y-99368790D01*
X138988318Y-99366105D01*
X139150720Y-99293799D01*
X139150722Y-99293798D01*
X139156750Y-99291114D01*
X139162092Y-99287233D01*
X139305907Y-99182746D01*
X139305909Y-99182744D01*
X139311251Y-99178863D01*
X139439037Y-99036942D01*
X139534524Y-98871554D01*
X139593538Y-98689927D01*
X139613500Y-98500000D01*
X139610210Y-98468695D01*
X139594228Y-98316637D01*
X139594228Y-98316636D01*
X139593538Y-98310073D01*
X139590613Y-98301069D01*
X139554487Y-98189885D01*
X139534524Y-98128446D01*
X139439037Y-97963058D01*
X139311251Y-97821137D01*
X139305909Y-97817256D01*
X139305907Y-97817254D01*
X139167149Y-97716441D01*
X139123795Y-97660219D01*
X139118691Y-97585091D01*
X139127928Y-97546616D01*
X139127223Y-97532530D01*
X139118344Y-97529000D01*
X137922115Y-97529000D01*
X137906876Y-97533475D01*
X137905671Y-97534865D01*
X137904000Y-97542548D01*
X137904000Y-98027960D01*
X137887120Y-98090958D01*
X137865476Y-98128446D01*
X137845513Y-98189885D01*
X137809388Y-98301069D01*
X137806462Y-98310073D01*
X137805772Y-98316636D01*
X137805772Y-98316637D01*
X137789790Y-98468695D01*
X137786500Y-98500000D01*
X137394793Y-98500000D01*
X137396000Y-98494452D01*
X137396000Y-97547115D01*
X137391525Y-97531876D01*
X137390135Y-97530671D01*
X137382452Y-97529000D01*
X136181757Y-97529000D01*
X136167777Y-97533105D01*
X136166601Y-97540679D01*
X122719687Y-97540679D01*
X122739349Y-97470494D01*
X122747488Y-97392398D01*
X140075352Y-97392398D01*
X140094870Y-97473385D01*
X140098759Y-97484680D01*
X140179336Y-97661900D01*
X140185283Y-97672242D01*
X140297923Y-97831036D01*
X140305716Y-97840064D01*
X140446347Y-97974689D01*
X140455722Y-97982093D01*
X140619258Y-98087686D01*
X140629872Y-98093187D01*
X140810432Y-98165956D01*
X140821873Y-98169345D01*
X141014382Y-98206938D01*
X141022817Y-98207963D01*
X141024328Y-98208000D01*
X141177885Y-98208000D01*
X141193124Y-98203525D01*
X141194329Y-98202135D01*
X141196000Y-98194452D01*
X141196000Y-97397115D01*
X141191525Y-97381876D01*
X141190135Y-97380671D01*
X141182452Y-97379000D01*
X140090238Y-97379000D01*
X140076707Y-97382973D01*
X140075352Y-97392398D01*
X122747488Y-97392398D01*
X122763249Y-97241176D01*
X122763500Y-97215000D01*
X122747039Y-97021000D01*
X122745545Y-97003384D01*
X136172072Y-97003384D01*
X136172777Y-97017470D01*
X136181656Y-97021000D01*
X137377885Y-97021000D01*
X137393124Y-97016525D01*
X137394329Y-97015135D01*
X137396000Y-97007452D01*
X137396000Y-96060115D01*
X137394659Y-96055548D01*
X137904000Y-96055548D01*
X137904000Y-97002885D01*
X137908475Y-97018124D01*
X137909865Y-97019329D01*
X137917548Y-97021000D01*
X139118243Y-97021000D01*
X139132223Y-97016895D01*
X139133399Y-97009321D01*
X139087139Y-96858953D01*
X140070860Y-96858953D01*
X140072007Y-96867005D01*
X140085579Y-96871000D01*
X141177885Y-96871000D01*
X141193124Y-96866525D01*
X141194329Y-96865135D01*
X141196000Y-96857452D01*
X141196000Y-96060115D01*
X141191525Y-96044876D01*
X141190135Y-96043671D01*
X141182452Y-96042000D01*
X141075587Y-96042000D01*
X141069610Y-96042285D01*
X140925241Y-96056059D01*
X140913507Y-96058318D01*
X140726700Y-96113121D01*
X140715625Y-96117551D01*
X140542550Y-96206690D01*
X140532504Y-96213140D01*
X140379411Y-96333395D01*
X140370762Y-96341632D01*
X140243174Y-96488664D01*
X140236238Y-96498388D01*
X140138757Y-96666890D01*
X140133783Y-96677754D01*
X140070860Y-96858953D01*
X139087139Y-96858953D01*
X139072877Y-96812595D01*
X139068656Y-96802249D01*
X138972849Y-96616627D01*
X138966864Y-96607196D01*
X138839704Y-96441479D01*
X138832140Y-96433253D01*
X138677647Y-96292675D01*
X138668736Y-96285912D01*
X138491799Y-96174920D01*
X138481829Y-96169839D01*
X138288027Y-96091931D01*
X138277328Y-96088700D01*
X138071818Y-96046142D01*
X138062679Y-96044939D01*
X138013533Y-96042105D01*
X138009887Y-96042000D01*
X137922115Y-96042000D01*
X137906876Y-96046475D01*
X137905671Y-96047865D01*
X137904000Y-96055548D01*
X137394659Y-96055548D01*
X137391525Y-96044876D01*
X137390135Y-96043671D01*
X137382452Y-96042000D01*
X137321779Y-96042000D01*
X137316184Y-96042249D01*
X137161364Y-96056067D01*
X137150350Y-96058049D01*
X136948879Y-96113165D01*
X136938406Y-96117059D01*
X136749869Y-96206987D01*
X136740254Y-96212673D01*
X136570624Y-96334564D01*
X136562158Y-96341872D01*
X136416796Y-96491873D01*
X136409766Y-96500555D01*
X136293258Y-96673937D01*
X136287879Y-96683722D01*
X136203918Y-96874991D01*
X136200353Y-96885583D01*
X136172072Y-97003384D01*
X122745545Y-97003384D01*
X122744458Y-96990576D01*
X122744457Y-96990572D01*
X122744007Y-96985265D01*
X122686084Y-96762098D01*
X122616306Y-96607196D01*
X122593578Y-96556743D01*
X122593577Y-96556741D01*
X122591388Y-96551882D01*
X122462627Y-96360626D01*
X122391354Y-96285912D01*
X122330868Y-96222507D01*
X122298321Y-96159410D01*
X122305052Y-96088733D01*
X122348926Y-96032916D01*
X122386538Y-96014640D01*
X122419545Y-96004948D01*
X122454670Y-95994635D01*
X122454672Y-95994634D01*
X122463316Y-95992096D01*
X122501472Y-95967574D01*
X122578691Y-95917949D01*
X122578694Y-95917947D01*
X122586271Y-95913077D01*
X122592172Y-95906267D01*
X122676082Y-95809431D01*
X122676084Y-95809428D01*
X122681984Y-95802619D01*
X122742700Y-95669670D01*
X122743982Y-95660754D01*
X122762861Y-95529448D01*
X122762862Y-95529441D01*
X122763500Y-95525000D01*
X122763500Y-93825000D01*
X122758273Y-93751921D01*
X122717096Y-93611684D01*
X122692574Y-93573528D01*
X122642949Y-93496309D01*
X122642947Y-93496306D01*
X122638077Y-93488729D01*
X122631267Y-93482828D01*
X122534431Y-93398918D01*
X122534428Y-93398916D01*
X122527619Y-93393016D01*
X122394670Y-93332300D01*
X122385755Y-93331018D01*
X122385754Y-93331018D01*
X122254448Y-93312139D01*
X122254441Y-93312138D01*
X122250000Y-93311500D01*
X120634000Y-93311500D01*
X120565879Y-93291498D01*
X120519386Y-93237842D01*
X120508000Y-93185500D01*
X120508000Y-92634000D01*
X120528002Y-92565879D01*
X120581658Y-92519386D01*
X120634000Y-92508000D01*
X142366000Y-92508000D01*
X142434121Y-92528002D01*
G37*
%TD.AperFunction*%
%TD*%
M02*
