%TF.GenerationSoftware,KiCad,Pcbnew,(5.99.0-10766-geeb405c196)*%
%TF.CreationDate,2021-06-27T17:30:59+04:00*%
%TF.ProjectId,FTDI_Basic_Breakout-3.3V,46544449-5f42-4617-9369-635f42726561,rev?*%
%TF.SameCoordinates,Original*%
%TF.FileFunction,Copper,L1,Top*%
%TF.FilePolarity,Positive*%
%FSLAX46Y46*%
G04 Gerber Fmt 4.6, Leading zero omitted, Abs format (unit mm)*
G04 Created by KiCad (PCBNEW (5.99.0-10766-geeb405c196)) date 2021-06-27 17:30:59*
%MOMM*%
%LPD*%
G01*
G04 APERTURE LIST*
G04 Aperture macros list*
%AMRoundRect*
0 Rectangle with rounded corners*
0 $1 Rounding radius*
0 $2 $3 $4 $5 $6 $7 $8 $9 X,Y pos of 4 corners*
0 Add a 4 corners polygon primitive as box body*
4,1,4,$2,$3,$4,$5,$6,$7,$8,$9,$2,$3,0*
0 Add four circle primitives for the rounded corners*
1,1,$1+$1,$2,$3*
1,1,$1+$1,$4,$5*
1,1,$1+$1,$6,$7*
1,1,$1+$1,$8,$9*
0 Add four rect primitives between the rounded corners*
20,1,$1+$1,$2,$3,$4,$5,0*
20,1,$1+$1,$4,$5,$6,$7,0*
20,1,$1+$1,$6,$7,$8,$9,0*
20,1,$1+$1,$8,$9,$2,$3,0*%
%AMFreePoly0*
4,1,22,0.550000,-0.750000,0.000000,-0.750000,0.000000,-0.745033,-0.079941,-0.743568,-0.215256,-0.701293,-0.333266,-0.622738,-0.424486,-0.514219,-0.481581,-0.384460,-0.499164,-0.250000,-0.500000,-0.250000,-0.500000,0.250000,-0.499164,0.250000,-0.499963,0.256109,-0.478152,0.396186,-0.417904,0.524511,-0.324060,0.630769,-0.204165,0.706417,-0.067858,0.745374,0.000000,0.744959,0.000000,0.750000,
0.550000,0.750000,0.550000,-0.750000,0.550000,-0.750000,$1*%
%AMFreePoly1*
4,1,20,0.000000,0.744959,0.073905,0.744508,0.209726,0.703889,0.328688,0.626782,0.421226,0.519385,0.479903,0.390333,0.500000,0.250000,0.500000,-0.250000,0.499851,-0.262216,0.476331,-0.402017,0.414519,-0.529596,0.319384,-0.634700,0.198574,-0.708877,0.061801,-0.746166,0.000000,-0.745033,0.000000,-0.750000,-0.550000,-0.750000,-0.550000,0.750000,0.000000,0.750000,0.000000,0.744959,
0.000000,0.744959,$1*%
G04 Aperture macros list end*
%TA.AperFunction,ComponentPad*%
%ADD10R,1.700000X1.700000*%
%TD*%
%TA.AperFunction,ComponentPad*%
%ADD11O,1.700000X1.700000*%
%TD*%
%TA.AperFunction,SMDPad,CuDef*%
%ADD12R,0.450000X1.750000*%
%TD*%
%TA.AperFunction,SMDPad,CuDef*%
%ADD13R,1.300000X0.450000*%
%TD*%
%TA.AperFunction,ComponentPad*%
%ADD14O,2.000000X1.450000*%
%TD*%
%TA.AperFunction,ComponentPad*%
%ADD15O,1.800000X1.150000*%
%TD*%
%TA.AperFunction,SMDPad,CuDef*%
%ADD16RoundRect,0.200000X-0.200000X-0.275000X0.200000X-0.275000X0.200000X0.275000X-0.200000X0.275000X0*%
%TD*%
%TA.AperFunction,SMDPad,CuDef*%
%ADD17RoundRect,0.250000X-0.250000X-0.475000X0.250000X-0.475000X0.250000X0.475000X-0.250000X0.475000X0*%
%TD*%
%TA.AperFunction,SMDPad,CuDef*%
%ADD18RoundRect,0.225000X-0.225000X-0.250000X0.225000X-0.250000X0.225000X0.250000X-0.225000X0.250000X0*%
%TD*%
%TA.AperFunction,SMDPad,CuDef*%
%ADD19FreePoly0,0.000000*%
%TD*%
%TA.AperFunction,SMDPad,CuDef*%
%ADD20R,1.000000X1.500000*%
%TD*%
%TA.AperFunction,SMDPad,CuDef*%
%ADD21FreePoly1,0.000000*%
%TD*%
%TA.AperFunction,SMDPad,CuDef*%
%ADD22RoundRect,0.200000X0.200000X0.275000X-0.200000X0.275000X-0.200000X-0.275000X0.200000X-0.275000X0*%
%TD*%
%TA.AperFunction,SMDPad,CuDef*%
%ADD23RoundRect,0.218750X-0.218750X-0.256250X0.218750X-0.256250X0.218750X0.256250X-0.218750X0.256250X0*%
%TD*%
%TA.AperFunction,SMDPad,CuDef*%
%ADD24RoundRect,0.218750X0.218750X0.256250X-0.218750X0.256250X-0.218750X-0.256250X0.218750X-0.256250X0*%
%TD*%
%TA.AperFunction,ViaPad*%
%ADD25C,0.800000*%
%TD*%
%TA.AperFunction,Conductor*%
%ADD26C,0.250000*%
%TD*%
G04 APERTURE END LIST*
%TO.C,JP1*%
G36*
X138300000Y-108300000D02*
G01*
X137800000Y-108300000D01*
X137800000Y-107700000D01*
X138300000Y-107700000D01*
X138300000Y-108300000D01*
G37*
%TD*%
D10*
%TO.P,J2,1,Pin_1*%
%TO.N,/CTS*%
X121400000Y-94675000D03*
D11*
%TO.P,J2,2,Pin_2*%
%TO.N,/RX*%
X121400000Y-97215000D03*
%TO.P,J2,3,Pin_3*%
%TO.N,/DTR*%
X121400000Y-99755000D03*
%TO.P,J2,4,Pin_4*%
%TO.N,/TX*%
X121400000Y-102295000D03*
%TO.P,J2,5,Pin_5*%
%TO.N,/VCCIO*%
X121400000Y-104835000D03*
%TO.P,J2,6,Pin_6*%
%TO.N,GND*%
X121400000Y-107375000D03*
%TD*%
D12*
%TO.P,U1,1,TXD*%
%TO.N,/TX*%
X125775000Y-104600000D03*
%TO.P,U1,2,DTR*%
%TO.N,/DTR*%
X126425000Y-104600000D03*
%TO.P,U1,3,RTS*%
%TO.N,unconnected-(U1-Pad3)*%
X127075000Y-104600000D03*
%TO.P,U1,4,VCCIO*%
%TO.N,/VCCIO*%
X127725000Y-104600000D03*
%TO.P,U1,5,RXD*%
%TO.N,/RX*%
X128375000Y-104600000D03*
%TO.P,U1,6,RI*%
%TO.N,unconnected-(U1-Pad6)*%
X129025000Y-104600000D03*
%TO.P,U1,7,GND*%
%TO.N,GND*%
X129675000Y-104600000D03*
%TO.P,U1,8*%
%TO.N,N/C*%
X130325000Y-104600000D03*
%TO.P,U1,9,DCR*%
%TO.N,unconnected-(U1-Pad9)*%
X130975000Y-104600000D03*
%TO.P,U1,10,DCD*%
%TO.N,unconnected-(U1-Pad10)*%
X131625000Y-104600000D03*
%TO.P,U1,11,CTS*%
%TO.N,/CTS*%
X132275000Y-104600000D03*
%TO.P,U1,12,CBUS4*%
%TO.N,unconnected-(U1-Pad12)*%
X132925000Y-104600000D03*
%TO.P,U1,13,CBUS2*%
%TO.N,unconnected-(U1-Pad13)*%
X133575000Y-104600000D03*
%TO.P,U1,14,CBUS3*%
%TO.N,unconnected-(U1-Pad14)*%
X134225000Y-104600000D03*
%TO.P,U1,15,USBD+*%
%TO.N,Net-(J1-Pad3)*%
X134225000Y-97400000D03*
%TO.P,U1,16,USBD-*%
%TO.N,Net-(J1-Pad2)*%
X133575000Y-97400000D03*
%TO.P,U1,17,3V3OUT*%
%TO.N,+3V3*%
X132925000Y-97400000D03*
%TO.P,U1,18,GND*%
%TO.N,GND*%
X132275000Y-97400000D03*
%TO.P,U1,19,~RESET~*%
%TO.N,unconnected-(U1-Pad19)*%
X131625000Y-97400000D03*
%TO.P,U1,20,VCC*%
%TO.N,+5V*%
X130975000Y-97400000D03*
%TO.P,U1,21,GND*%
%TO.N,GND*%
X130325000Y-97400000D03*
%TO.P,U1,22,CBUS1*%
%TO.N,/RX_LED*%
X129675000Y-97400000D03*
%TO.P,U1,23,CBUS0*%
%TO.N,/TX_LED*%
X129025000Y-97400000D03*
%TO.P,U1,24*%
%TO.N,N/C*%
X128375000Y-97400000D03*
%TO.P,U1,25,AGND*%
%TO.N,GND*%
X127725000Y-97400000D03*
%TO.P,U1,26,TEST*%
%TO.N,unconnected-(U1-Pad26)*%
X127075000Y-97400000D03*
%TO.P,U1,27,OSCI*%
%TO.N,unconnected-(U1-Pad27)*%
X126425000Y-97400000D03*
%TO.P,U1,28,OSCO*%
%TO.N,unconnected-(U1-Pad28)*%
X125775000Y-97400000D03*
%TD*%
D13*
%TO.P,J1,1,VBUS*%
%TO.N,+5V*%
X137600000Y-102300000D03*
%TO.P,J1,2,D-*%
%TO.N,Net-(J1-Pad2)*%
X137600000Y-101650000D03*
%TO.P,J1,3,D+*%
%TO.N,Net-(J1-Pad3)*%
X137600000Y-101000000D03*
%TO.P,J1,4,ID*%
%TO.N,unconnected-(J1-Pad4)*%
X137600000Y-100350000D03*
%TO.P,J1,5,GND*%
%TO.N,GND*%
X137600000Y-99700000D03*
D14*
%TO.P,J1,6,Shield*%
X137650000Y-97275000D03*
X137650000Y-104725000D03*
D15*
X141450000Y-104875000D03*
X141450000Y-97125000D03*
%TD*%
D16*
%TO.P,R2,1*%
%TO.N,/RX_LED*%
X136175000Y-95000000D03*
%TO.P,R2,2*%
%TO.N,Net-(D2-Pad1)*%
X137825000Y-95000000D03*
%TD*%
D17*
%TO.P,C2,1*%
%TO.N,+5V*%
X126650000Y-94000000D03*
%TO.P,C2,2*%
%TO.N,GND*%
X128550000Y-94000000D03*
%TD*%
D18*
%TO.P,C3,1*%
%TO.N,GND*%
X133225000Y-106500000D03*
%TO.P,C3,2*%
%TO.N,+3V3*%
X134775000Y-106500000D03*
%TD*%
D19*
%TO.P,JP1,1,A*%
%TO.N,+3V3*%
X137400000Y-108000000D03*
D20*
%TO.P,JP1,2,C*%
%TO.N,/VCCIO*%
X138700000Y-108000000D03*
D21*
%TO.P,JP1,3,B*%
%TO.N,+5V*%
X140000000Y-108000000D03*
%TD*%
D22*
%TO.P,R1,1*%
%TO.N,/TX_LED*%
X134825000Y-95000000D03*
%TO.P,R1,2*%
%TO.N,Net-(D1-Pad1)*%
X133175000Y-95000000D03*
%TD*%
D23*
%TO.P,D1,1,K*%
%TO.N,Net-(D1-Pad1)*%
X133212500Y-93500000D03*
%TO.P,D1,2,A*%
%TO.N,+5V*%
X134787500Y-93500000D03*
%TD*%
D18*
%TO.P,C1,1*%
%TO.N,+5V*%
X126625000Y-95600000D03*
%TO.P,C1,2*%
%TO.N,GND*%
X128175000Y-95600000D03*
%TD*%
D24*
%TO.P,D2,1,K*%
%TO.N,Net-(D2-Pad1)*%
X137787500Y-93500000D03*
%TO.P,D2,2,A*%
%TO.N,+5V*%
X136212500Y-93500000D03*
%TD*%
D25*
%TO.N,GND*%
X130200000Y-94000000D03*
X132200000Y-100400000D03*
X127800000Y-99000000D03*
X131250000Y-106500000D03*
%TD*%
D26*
%TO.N,+5V*%
X137012020Y-92700480D02*
X136212500Y-93500000D01*
X140000000Y-94400000D02*
X138300480Y-92700480D01*
X138300480Y-92700480D02*
X137012020Y-92700480D01*
X140000000Y-101400000D02*
X140000000Y-94400000D01*
X139100000Y-102300000D02*
X140000000Y-101400000D01*
X140000000Y-103200000D02*
X140000000Y-108000000D01*
X139100000Y-102300000D02*
X140000000Y-103200000D01*
X138500000Y-102300000D02*
X139100000Y-102300000D01*
%TO.N,GND*%
X128400000Y-94150000D02*
X128550000Y-94000000D01*
X128400000Y-95375000D02*
X128400000Y-94150000D01*
X128175000Y-95600000D02*
X128400000Y-95375000D01*
X128550000Y-94000000D02*
X130200000Y-94000000D01*
%TO.N,+5V*%
X130000000Y-100000000D02*
X130975000Y-99025000D01*
X126600000Y-100000000D02*
X130000000Y-100000000D01*
X125200000Y-98600000D02*
X126600000Y-100000000D01*
X125200000Y-96470880D02*
X125200000Y-98600000D01*
X126070880Y-95600000D02*
X125200000Y-96470880D01*
X126625000Y-95600000D02*
X126070880Y-95600000D01*
X130975000Y-99025000D02*
X130975000Y-97400000D01*
X126625000Y-94025000D02*
X126650000Y-94000000D01*
X126625000Y-95600000D02*
X126625000Y-94025000D01*
X133987980Y-92700480D02*
X127949520Y-92700480D01*
X134787500Y-93500000D02*
X133987980Y-92700480D01*
X127949520Y-92700480D02*
X126650000Y-94000000D01*
%TO.N,GND*%
X127725000Y-98925000D02*
X127800000Y-99000000D01*
X127725000Y-97400000D02*
X127725000Y-98925000D01*
X129850000Y-99000000D02*
X127800000Y-99000000D01*
X130325000Y-98525000D02*
X129850000Y-99000000D01*
X130325000Y-97400000D02*
X130325000Y-98525000D01*
X132275000Y-100325000D02*
X132200000Y-100400000D01*
X132275000Y-97400000D02*
X132275000Y-100325000D01*
%TO.N,+5V*%
X137600000Y-102300000D02*
X138500000Y-102300000D01*
X134787500Y-93500000D02*
X136212500Y-93500000D01*
%TO.N,/RX_LED*%
X134925000Y-96250000D02*
X136175000Y-95000000D01*
X129970880Y-96250000D02*
X134925000Y-96250000D01*
X129675000Y-96545880D02*
X129970880Y-96250000D01*
X129675000Y-97400000D02*
X129675000Y-96545880D01*
%TO.N,/TX_LED*%
X129025000Y-96275000D02*
X129025000Y-97400000D01*
X134025480Y-95799520D02*
X129500480Y-95799520D01*
X129500480Y-95799520D02*
X129025000Y-96275000D01*
X134825000Y-95000000D02*
X134025480Y-95799520D01*
%TO.N,Net-(D2-Pad1)*%
X137787500Y-94962500D02*
X137825000Y-95000000D01*
X137787500Y-93500000D02*
X137787500Y-94962500D01*
%TO.N,Net-(D1-Pad1)*%
X133212500Y-94962500D02*
X133175000Y-95000000D01*
X133212500Y-93500000D02*
X133212500Y-94962500D01*
%TO.N,GND*%
X130000000Y-106500000D02*
X131250000Y-106500000D01*
X129675000Y-106175000D02*
X130000000Y-106500000D01*
X129675000Y-104600000D02*
X129675000Y-106175000D01*
%TO.N,/CTS*%
X123750000Y-96000000D02*
X123750000Y-98750000D01*
X122425000Y-94675000D02*
X123750000Y-96000000D01*
X126750000Y-101750000D02*
X130550000Y-101750000D01*
X121400000Y-94675000D02*
X122425000Y-94675000D01*
X123750000Y-98750000D02*
X126750000Y-101750000D01*
X130550000Y-101750000D02*
X131050000Y-102250000D01*
%TO.N,/RX*%
X128375000Y-103475000D02*
X128375000Y-104600000D01*
X126250000Y-102750000D02*
X127650000Y-102750000D01*
X127650000Y-102750000D02*
X128375000Y-103475000D01*
X121400000Y-97900000D02*
X126250000Y-102750000D01*
X121400000Y-97215000D02*
X121400000Y-97900000D01*
%TO.N,/DTR*%
X121400000Y-99900000D02*
X121400000Y-99755000D01*
X126259609Y-103400489D02*
X124900489Y-103400489D01*
X126425000Y-103565880D02*
X126259609Y-103400489D01*
X124900489Y-103400489D02*
X121400000Y-99900000D01*
X126425000Y-104600000D02*
X126425000Y-103565880D01*
%TO.N,/CTS*%
X132275000Y-103475000D02*
X131050000Y-102250000D01*
X132275000Y-104600000D02*
X132275000Y-103475000D01*
%TO.N,/TX*%
X123705000Y-104600000D02*
X121400000Y-102295000D01*
X125775000Y-104600000D02*
X123705000Y-104600000D01*
%TO.N,/VCCIO*%
X127725000Y-105775000D02*
X127725000Y-105725000D01*
X127000000Y-106500000D02*
X127725000Y-105775000D01*
X121400000Y-104835000D02*
X123065000Y-106500000D01*
X123065000Y-106500000D02*
X127000000Y-106500000D01*
X130250000Y-108250000D02*
X127725000Y-105725000D01*
X136325648Y-109075648D02*
X135500000Y-108250000D01*
X135500000Y-108250000D02*
X130250000Y-108250000D01*
X138700000Y-109000000D02*
X138624352Y-109075648D01*
X138700000Y-108000000D02*
X138700000Y-109000000D01*
X127725000Y-105725000D02*
X127725000Y-104600000D01*
X138624352Y-109075648D02*
X136325648Y-109075648D01*
%TO.N,+3V3*%
X134775000Y-100775000D02*
X132925000Y-98925000D01*
X134775000Y-106500000D02*
X134775000Y-100775000D01*
X132925000Y-98925000D02*
X132925000Y-97400000D01*
X135900000Y-106500000D02*
X134775000Y-106500000D01*
X137400000Y-108000000D02*
X135900000Y-106500000D01*
%TO.N,Net-(J1-Pad2)*%
X133575000Y-98525000D02*
X133575000Y-97400000D01*
X137600000Y-101650000D02*
X136700000Y-101650000D01*
%TO.N,Net-(J1-Pad3)*%
X134225000Y-98448416D02*
X134225000Y-97400000D01*
%TO.N,Net-(J1-Pad2)*%
X136700000Y-101650000D02*
X133575000Y-98525000D01*
%TO.N,Net-(J1-Pad3)*%
X136776584Y-101000000D02*
X134225000Y-98448416D01*
X137600000Y-101000000D02*
X136776584Y-101000000D01*
%TD*%
%TA.AperFunction,Conductor*%
%TO.N,GND*%
G36*
X142434121Y-92528002D02*
G01*
X142480614Y-92581658D01*
X142492000Y-92634000D01*
X142492000Y-96067382D01*
X142471998Y-96135503D01*
X142418342Y-96181996D01*
X142348068Y-96192100D01*
X142297652Y-96173233D01*
X142280744Y-96162315D01*
X142270128Y-96156813D01*
X142089568Y-96084044D01*
X142078127Y-96080655D01*
X141885618Y-96043062D01*
X141877183Y-96042037D01*
X141875672Y-96042000D01*
X141722115Y-96042000D01*
X141706876Y-96046475D01*
X141705671Y-96047865D01*
X141704000Y-96055548D01*
X141704000Y-98189885D01*
X141708475Y-98205124D01*
X141709865Y-98206329D01*
X141717548Y-98208000D01*
X141824413Y-98208000D01*
X141830390Y-98207715D01*
X141974759Y-98193941D01*
X141986493Y-98191682D01*
X142173300Y-98136879D01*
X142184376Y-98132449D01*
X142308308Y-98068620D01*
X142378027Y-98055211D01*
X142443927Y-98081624D01*
X142485087Y-98139473D01*
X142492000Y-98180636D01*
X142492000Y-103817382D01*
X142471998Y-103885503D01*
X142418342Y-103931996D01*
X142348068Y-103942100D01*
X142297652Y-103923233D01*
X142280744Y-103912315D01*
X142270128Y-103906813D01*
X142089568Y-103834044D01*
X142078127Y-103830655D01*
X141885618Y-103793062D01*
X141877183Y-103792037D01*
X141875672Y-103792000D01*
X141722115Y-103792000D01*
X141706876Y-103796475D01*
X141705671Y-103797865D01*
X141704000Y-103805548D01*
X141704000Y-105939885D01*
X141708475Y-105955124D01*
X141709865Y-105956329D01*
X141717548Y-105958000D01*
X141824413Y-105958000D01*
X141830390Y-105957715D01*
X141974759Y-105943941D01*
X141986493Y-105941682D01*
X142173300Y-105886879D01*
X142184376Y-105882449D01*
X142308308Y-105818620D01*
X142378027Y-105805211D01*
X142443927Y-105831624D01*
X142485087Y-105889473D01*
X142492000Y-105930636D01*
X142492000Y-109366000D01*
X142471998Y-109434121D01*
X142418342Y-109480614D01*
X142366000Y-109492000D01*
X140238365Y-109492000D01*
X140170244Y-109471998D01*
X140123751Y-109418342D01*
X140113647Y-109348068D01*
X140143141Y-109283488D01*
X140205223Y-109244437D01*
X140234884Y-109236350D01*
X140335628Y-109208884D01*
X140416833Y-109173743D01*
X140465129Y-109152844D01*
X140465132Y-109152842D01*
X140469244Y-109151063D01*
X140591262Y-109076144D01*
X140594707Y-109073284D01*
X140594711Y-109073281D01*
X140699835Y-108986005D01*
X140699838Y-108986002D01*
X140703283Y-108983142D01*
X140799369Y-108876987D01*
X140801874Y-108873273D01*
X140801878Y-108873268D01*
X140878274Y-108760006D01*
X140878277Y-108760001D01*
X140880782Y-108756287D01*
X140892441Y-108732224D01*
X140941256Y-108631469D01*
X140943212Y-108627432D01*
X140944573Y-108623168D01*
X140944576Y-108623160D01*
X140986114Y-108493005D01*
X140986115Y-108493001D01*
X140987478Y-108488730D01*
X141011233Y-108347531D01*
X141018311Y-108268622D01*
X141018462Y-108256284D01*
X141013766Y-108184148D01*
X141013500Y-108175963D01*
X141013500Y-107827896D01*
X141014004Y-107816639D01*
X141018093Y-107771052D01*
X141018311Y-107768622D01*
X141018462Y-107756284D01*
X141013314Y-107677205D01*
X140993016Y-107535468D01*
X140952151Y-107395723D01*
X140925134Y-107336304D01*
X140894742Y-107269460D01*
X140894740Y-107269456D01*
X140892887Y-107265381D01*
X140871777Y-107232371D01*
X140816865Y-107146508D01*
X140814449Y-107142730D01*
X140720985Y-107034259D01*
X140676669Y-106995600D01*
X140638486Y-106935747D01*
X140633500Y-106900652D01*
X140633500Y-106031277D01*
X140653502Y-105963156D01*
X140707158Y-105916663D01*
X140777432Y-105906559D01*
X140806593Y-105914409D01*
X140810422Y-105915952D01*
X140821880Y-105919346D01*
X141014382Y-105956938D01*
X141022817Y-105957963D01*
X141024328Y-105958000D01*
X141177885Y-105958000D01*
X141193124Y-105953525D01*
X141194329Y-105952135D01*
X141196000Y-105944452D01*
X141196000Y-103810115D01*
X141191525Y-103794876D01*
X141190135Y-103793671D01*
X141182452Y-103792000D01*
X141075587Y-103792000D01*
X141069610Y-103792285D01*
X140925241Y-103806059D01*
X140913507Y-103808318D01*
X140794969Y-103843093D01*
X140723973Y-103843076D01*
X140664256Y-103804678D01*
X140634778Y-103740090D01*
X140633500Y-103722188D01*
X140633500Y-103278383D01*
X140634014Y-103267479D01*
X140635666Y-103260088D01*
X140634926Y-103236523D01*
X140633562Y-103193134D01*
X140633500Y-103189176D01*
X140633500Y-103160422D01*
X140632961Y-103156155D01*
X140632027Y-103144305D01*
X140630888Y-103108040D01*
X140630639Y-103100117D01*
X140624988Y-103080666D01*
X140620978Y-103061304D01*
X140619433Y-103049073D01*
X140618440Y-103041212D01*
X140604573Y-103006187D01*
X140602166Y-103000108D01*
X140598321Y-102988878D01*
X140588198Y-102954034D01*
X140588197Y-102954032D01*
X140585986Y-102946421D01*
X140575677Y-102928989D01*
X140566980Y-102911236D01*
X140562442Y-102899775D01*
X140559522Y-102892400D01*
X140533531Y-102856626D01*
X140527016Y-102846707D01*
X140507529Y-102813758D01*
X140507527Y-102813755D01*
X140504513Y-102808659D01*
X140504145Y-102808241D01*
X140490062Y-102794158D01*
X140477228Y-102779133D01*
X140465446Y-102762917D01*
X140431664Y-102734970D01*
X140422885Y-102726981D01*
X140084999Y-102389095D01*
X140050973Y-102326783D01*
X140056038Y-102255968D01*
X140084999Y-102210905D01*
X140392513Y-101903391D01*
X140400601Y-101896031D01*
X140406995Y-101891973D01*
X140452870Y-101843121D01*
X140455624Y-101840280D01*
X140475938Y-101819966D01*
X140478583Y-101816555D01*
X140486289Y-101807533D01*
X140511133Y-101781077D01*
X140516557Y-101775301D01*
X140520376Y-101768355D01*
X140526318Y-101757547D01*
X140537172Y-101741023D01*
X140544725Y-101731286D01*
X140544725Y-101731285D01*
X140549583Y-101725023D01*
X140567142Y-101684447D01*
X140572363Y-101673790D01*
X140576371Y-101666500D01*
X140593662Y-101635048D01*
X140595635Y-101627364D01*
X140598699Y-101615432D01*
X140605103Y-101596728D01*
X140609999Y-101585415D01*
X140610001Y-101585408D01*
X140613148Y-101578136D01*
X140616096Y-101559527D01*
X140620065Y-101534465D01*
X140622472Y-101522844D01*
X140631987Y-101485782D01*
X140631987Y-101485781D01*
X140633465Y-101480025D01*
X140633500Y-101479469D01*
X140633500Y-101459548D01*
X140635051Y-101439838D01*
X140636944Y-101427886D01*
X140636944Y-101427885D01*
X140638184Y-101420056D01*
X140634059Y-101376417D01*
X140633500Y-101364560D01*
X140633500Y-98281277D01*
X140653502Y-98213156D01*
X140707158Y-98166663D01*
X140777432Y-98156559D01*
X140806593Y-98164409D01*
X140810422Y-98165952D01*
X140821880Y-98169346D01*
X141014382Y-98206938D01*
X141022817Y-98207963D01*
X141024328Y-98208000D01*
X141177885Y-98208000D01*
X141193124Y-98203525D01*
X141194329Y-98202135D01*
X141196000Y-98194452D01*
X141196000Y-96060115D01*
X141191525Y-96044876D01*
X141190135Y-96043671D01*
X141182452Y-96042000D01*
X141075587Y-96042000D01*
X141069610Y-96042285D01*
X140925241Y-96056059D01*
X140913507Y-96058318D01*
X140794969Y-96093093D01*
X140723973Y-96093076D01*
X140664256Y-96054678D01*
X140634778Y-95990090D01*
X140633500Y-95972188D01*
X140633500Y-94478383D01*
X140634014Y-94467479D01*
X140635666Y-94460088D01*
X140633562Y-94393134D01*
X140633500Y-94389176D01*
X140633500Y-94360422D01*
X140632961Y-94356155D01*
X140632027Y-94344305D01*
X140630888Y-94308040D01*
X140630639Y-94300117D01*
X140624988Y-94280666D01*
X140620978Y-94261304D01*
X140620267Y-94255671D01*
X140618440Y-94241212D01*
X140602166Y-94200108D01*
X140598321Y-94188878D01*
X140588198Y-94154034D01*
X140588197Y-94154032D01*
X140585986Y-94146421D01*
X140575677Y-94128989D01*
X140566980Y-94111236D01*
X140562442Y-94099775D01*
X140559522Y-94092400D01*
X140533531Y-94056626D01*
X140527016Y-94046707D01*
X140507529Y-94013758D01*
X140507527Y-94013755D01*
X140504513Y-94008659D01*
X140504145Y-94008241D01*
X140490062Y-93994158D01*
X140477228Y-93979133D01*
X140465446Y-93962917D01*
X140431664Y-93934970D01*
X140422885Y-93926981D01*
X139218999Y-92723095D01*
X139184973Y-92660783D01*
X139190038Y-92589968D01*
X139232585Y-92533132D01*
X139299105Y-92508321D01*
X139308094Y-92508000D01*
X142366000Y-92508000D01*
X142434121Y-92528002D01*
G37*
%TD.AperFunction*%
%TA.AperFunction,Conductor*%
G36*
X127794032Y-106706038D02*
G01*
X127839095Y-106734999D01*
X129746609Y-108642513D01*
X129753969Y-108650601D01*
X129758027Y-108656995D01*
X129798436Y-108694941D01*
X129806878Y-108702869D01*
X129809720Y-108705624D01*
X129830034Y-108725938D01*
X129833445Y-108728583D01*
X129842465Y-108736287D01*
X129874699Y-108766557D01*
X129881643Y-108770374D01*
X129881645Y-108770376D01*
X129892453Y-108776318D01*
X129908977Y-108787172D01*
X129924977Y-108799583D01*
X129932248Y-108802730D01*
X129932249Y-108802730D01*
X129965551Y-108817141D01*
X129976207Y-108822362D01*
X130014952Y-108843662D01*
X130022635Y-108845634D01*
X130022636Y-108845635D01*
X130034568Y-108848699D01*
X130053272Y-108855103D01*
X130064585Y-108859999D01*
X130064592Y-108860001D01*
X130071864Y-108863148D01*
X130079688Y-108864387D01*
X130079691Y-108864388D01*
X130115535Y-108870065D01*
X130127156Y-108872472D01*
X130164218Y-108881987D01*
X130169975Y-108883465D01*
X130170531Y-108883500D01*
X130190452Y-108883500D01*
X130210162Y-108885051D01*
X130222114Y-108886944D01*
X130222115Y-108886944D01*
X130229944Y-108888184D01*
X130237836Y-108887438D01*
X130273582Y-108884059D01*
X130285440Y-108883500D01*
X135185406Y-108883500D01*
X135253527Y-108903502D01*
X135274501Y-108920405D01*
X135631001Y-109276905D01*
X135665027Y-109339217D01*
X135659962Y-109410032D01*
X135617415Y-109466868D01*
X135550895Y-109491679D01*
X135541906Y-109492000D01*
X120634000Y-109492000D01*
X120565879Y-109471998D01*
X120519386Y-109418342D01*
X120508000Y-109366000D01*
X120508000Y-108646599D01*
X120528002Y-108578478D01*
X120581658Y-108531985D01*
X120651932Y-108521881D01*
X120701421Y-108540155D01*
X120766122Y-108581136D01*
X120775567Y-108586053D01*
X120978406Y-108670694D01*
X120988545Y-108673950D01*
X121128345Y-108706096D01*
X121142422Y-108705257D01*
X121146000Y-108695999D01*
X121146000Y-107642548D01*
X121654000Y-107642548D01*
X121654000Y-108694941D01*
X121658151Y-108709079D01*
X121668798Y-108710774D01*
X121672192Y-108710096D01*
X121883333Y-108648954D01*
X121893259Y-108645143D01*
X122091065Y-108549307D01*
X122100212Y-108543876D01*
X122279041Y-108416083D01*
X122287149Y-108409182D01*
X122441893Y-108253082D01*
X122448706Y-108244933D01*
X122574940Y-108064988D01*
X122580295Y-108055787D01*
X122674399Y-107857156D01*
X122678123Y-107847197D01*
X122735968Y-107640718D01*
X122734430Y-107632351D01*
X122722137Y-107629000D01*
X121672115Y-107629000D01*
X121656876Y-107633475D01*
X121655671Y-107634865D01*
X121654000Y-107642548D01*
X121146000Y-107642548D01*
X121146000Y-107247000D01*
X121166002Y-107178879D01*
X121219658Y-107132386D01*
X121272000Y-107121000D01*
X122719079Y-107121000D01*
X122759871Y-107109022D01*
X122776601Y-107098270D01*
X122843440Y-107097125D01*
X122849579Y-107098701D01*
X122868271Y-107105102D01*
X122886865Y-107113148D01*
X122920278Y-107118440D01*
X122930531Y-107120064D01*
X122942154Y-107122471D01*
X122984975Y-107133465D01*
X122985531Y-107133500D01*
X123005447Y-107133500D01*
X123025157Y-107135051D01*
X123044945Y-107138185D01*
X123052837Y-107137439D01*
X123088593Y-107134059D01*
X123100451Y-107133500D01*
X126921616Y-107133500D01*
X126932520Y-107134014D01*
X126939911Y-107135666D01*
X126947837Y-107135417D01*
X126947838Y-107135417D01*
X127006866Y-107133562D01*
X127010823Y-107133500D01*
X127039578Y-107133500D01*
X127043845Y-107132961D01*
X127055687Y-107132028D01*
X127087335Y-107131033D01*
X127091960Y-107130888D01*
X127099883Y-107130639D01*
X127119334Y-107124988D01*
X127138695Y-107120978D01*
X127141420Y-107120634D01*
X127150930Y-107119433D01*
X127150933Y-107119432D01*
X127158788Y-107118440D01*
X127166153Y-107115524D01*
X127166157Y-107115523D01*
X127199901Y-107102163D01*
X127211130Y-107098318D01*
X127253578Y-107085986D01*
X127262567Y-107080670D01*
X127271011Y-107075677D01*
X127288762Y-107066981D01*
X127300226Y-107062442D01*
X127300229Y-107062440D01*
X127307600Y-107059522D01*
X127343368Y-107033535D01*
X127353291Y-107027016D01*
X127391341Y-107004514D01*
X127391759Y-107004145D01*
X127405842Y-106990062D01*
X127420867Y-106977228D01*
X127437083Y-106965446D01*
X127465030Y-106931664D01*
X127473019Y-106922885D01*
X127660905Y-106734999D01*
X127723217Y-106700973D01*
X127794032Y-106706038D01*
G37*
%TD.AperFunction*%
%TA.AperFunction,Conductor*%
G36*
X130303527Y-102403502D02*
G01*
X130324501Y-102420405D01*
X131310621Y-103406525D01*
X131344647Y-103468837D01*
X131339582Y-103539652D01*
X131297035Y-103596488D01*
X131230515Y-103621299D01*
X131209177Y-103621013D01*
X131206066Y-103620707D01*
X131200000Y-103619500D01*
X130750000Y-103619500D01*
X130709627Y-103627531D01*
X130699309Y-103634425D01*
X130698218Y-103634877D01*
X130627628Y-103642466D01*
X130601782Y-103634877D01*
X130600691Y-103634425D01*
X130590373Y-103627531D01*
X130550000Y-103619500D01*
X130492560Y-103619500D01*
X130424439Y-103599498D01*
X130377946Y-103545842D01*
X130371664Y-103528998D01*
X130369181Y-103520541D01*
X130361768Y-103504309D01*
X130292574Y-103396640D01*
X130280888Y-103383153D01*
X130184160Y-103299338D01*
X130169152Y-103289693D01*
X130052725Y-103236523D01*
X130035612Y-103231498D01*
X129917929Y-103214578D01*
X129903973Y-103216584D01*
X129900000Y-103230115D01*
X129900000Y-105969885D01*
X129904384Y-105984814D01*
X129915785Y-105986871D01*
X129966269Y-105983260D01*
X129979491Y-105980874D01*
X130104458Y-105944181D01*
X130120692Y-105936767D01*
X130228360Y-105867574D01*
X130241847Y-105855888D01*
X130325662Y-105759160D01*
X130335307Y-105744152D01*
X130376405Y-105654158D01*
X130422898Y-105600502D01*
X130491019Y-105580500D01*
X130550000Y-105580500D01*
X130590373Y-105572469D01*
X130600691Y-105565575D01*
X130601782Y-105565123D01*
X130672372Y-105557534D01*
X130698218Y-105565123D01*
X130699309Y-105565575D01*
X130709627Y-105572469D01*
X130750000Y-105580500D01*
X131200000Y-105580500D01*
X131240373Y-105572469D01*
X131250691Y-105565575D01*
X131251782Y-105565123D01*
X131322372Y-105557534D01*
X131348218Y-105565123D01*
X131349309Y-105565575D01*
X131359627Y-105572469D01*
X131400000Y-105580500D01*
X131850000Y-105580500D01*
X131890373Y-105572469D01*
X131900691Y-105565575D01*
X131901782Y-105565123D01*
X131972372Y-105557534D01*
X131998218Y-105565123D01*
X131999309Y-105565575D01*
X132009627Y-105572469D01*
X132050000Y-105580500D01*
X132331577Y-105580500D01*
X132399698Y-105600502D01*
X132446191Y-105654158D01*
X132456295Y-105724432D01*
X132423049Y-105793153D01*
X132414098Y-105802602D01*
X132405383Y-105814252D01*
X132326887Y-105949393D01*
X132321087Y-105962731D01*
X132275539Y-106113120D01*
X132273089Y-106125752D01*
X132267249Y-106191185D01*
X132267000Y-106196780D01*
X132267000Y-106227885D01*
X132271475Y-106243124D01*
X132272865Y-106244329D01*
X132280548Y-106246000D01*
X133353000Y-106246000D01*
X133421121Y-106266002D01*
X133467614Y-106319658D01*
X133479000Y-106372000D01*
X133479000Y-106628000D01*
X133458998Y-106696121D01*
X133405342Y-106742614D01*
X133353000Y-106754000D01*
X132285115Y-106754000D01*
X132269876Y-106758475D01*
X132268671Y-106759865D01*
X132267000Y-106767548D01*
X132267000Y-106789223D01*
X132267425Y-106796527D01*
X132280946Y-106912505D01*
X132284291Y-106926657D01*
X132337617Y-107073567D01*
X132344127Y-107086566D01*
X132429820Y-107217270D01*
X132439144Y-107228422D01*
X132552607Y-107335906D01*
X132564252Y-107344617D01*
X132627830Y-107381546D01*
X132676689Y-107433056D01*
X132689943Y-107502805D01*
X132663384Y-107568647D01*
X132605444Y-107609677D01*
X132564545Y-107616500D01*
X130564594Y-107616500D01*
X130496473Y-107596498D01*
X130475499Y-107579595D01*
X128894251Y-105998347D01*
X128892994Y-105996045D01*
X128887610Y-105991706D01*
X128689379Y-105793475D01*
X128655353Y-105731163D01*
X128660418Y-105660348D01*
X128702965Y-105603512D01*
X128769485Y-105578701D01*
X128790823Y-105578987D01*
X128793934Y-105579293D01*
X128800000Y-105580500D01*
X128857440Y-105580500D01*
X128925561Y-105600502D01*
X128972054Y-105654158D01*
X128978336Y-105671002D01*
X128980819Y-105679459D01*
X128988232Y-105695691D01*
X129057426Y-105803360D01*
X129069112Y-105816847D01*
X129165840Y-105900662D01*
X129180848Y-105910307D01*
X129297275Y-105963477D01*
X129314388Y-105968502D01*
X129432071Y-105985422D01*
X129446027Y-105983416D01*
X129450000Y-105969885D01*
X129450000Y-103230115D01*
X129445616Y-103215186D01*
X129434215Y-103213129D01*
X129383731Y-103216740D01*
X129370509Y-103219126D01*
X129245542Y-103255819D01*
X129229313Y-103263231D01*
X129155457Y-103310694D01*
X129087336Y-103330695D01*
X129019215Y-103310692D01*
X128972723Y-103257036D01*
X128966340Y-103239846D01*
X128963200Y-103229038D01*
X128963199Y-103229035D01*
X128960987Y-103221422D01*
X128950674Y-103203983D01*
X128941978Y-103186231D01*
X128937442Y-103174775D01*
X128934522Y-103167400D01*
X128908533Y-103131629D01*
X128902016Y-103121708D01*
X128889247Y-103100117D01*
X128879514Y-103083659D01*
X128879145Y-103083241D01*
X128865062Y-103069158D01*
X128852228Y-103054133D01*
X128840446Y-103037917D01*
X128806664Y-103009970D01*
X128797885Y-103001981D01*
X128394499Y-102598595D01*
X128360473Y-102536283D01*
X128365538Y-102465468D01*
X128408085Y-102408632D01*
X128474605Y-102383821D01*
X128483594Y-102383500D01*
X130235406Y-102383500D01*
X130303527Y-102403502D01*
G37*
%TD.AperFunction*%
%TA.AperFunction,Conductor*%
G36*
X135617012Y-101463371D02*
G01*
X135623595Y-101469500D01*
X136196618Y-102042523D01*
X136203969Y-102050601D01*
X136208027Y-102056995D01*
X136213806Y-102062422D01*
X136213807Y-102062423D01*
X136256862Y-102102854D01*
X136259704Y-102105609D01*
X136280033Y-102125938D01*
X136283453Y-102128590D01*
X136292476Y-102136297D01*
X136324699Y-102166557D01*
X136331643Y-102170374D01*
X136331648Y-102170378D01*
X136342450Y-102176316D01*
X136358977Y-102187172D01*
X136374977Y-102199583D01*
X136376531Y-102200256D01*
X136423091Y-102250119D01*
X136436500Y-102306682D01*
X136436500Y-102525000D01*
X136441727Y-102598079D01*
X136443631Y-102604562D01*
X136479576Y-102726981D01*
X136482904Y-102738316D01*
X136487775Y-102745895D01*
X136557051Y-102853691D01*
X136557053Y-102853694D01*
X136561923Y-102861271D01*
X136568733Y-102867172D01*
X136665569Y-102951082D01*
X136665572Y-102951084D01*
X136672381Y-102956984D01*
X136805330Y-103017700D01*
X136814245Y-103018982D01*
X136814246Y-103018982D01*
X136945552Y-103037861D01*
X136945559Y-103037862D01*
X136950000Y-103038500D01*
X137721277Y-103038500D01*
X137789398Y-103058502D01*
X137835891Y-103112158D01*
X137845995Y-103182432D01*
X137841110Y-103203436D01*
X137813084Y-103289693D01*
X137806462Y-103310073D01*
X137805772Y-103316636D01*
X137805772Y-103316637D01*
X137796325Y-103406525D01*
X137786500Y-103500000D01*
X137787190Y-103506565D01*
X137803598Y-103662673D01*
X137806462Y-103689927D01*
X137865476Y-103871554D01*
X137887120Y-103909042D01*
X137904000Y-103972040D01*
X137904000Y-105939885D01*
X137908475Y-105955124D01*
X137909865Y-105956329D01*
X137917548Y-105958000D01*
X137978221Y-105958000D01*
X137983816Y-105957751D01*
X138138636Y-105943933D01*
X138149650Y-105941951D01*
X138351121Y-105886835D01*
X138361594Y-105882941D01*
X138550131Y-105793013D01*
X138559746Y-105787327D01*
X138729376Y-105665436D01*
X138737842Y-105658128D01*
X138883204Y-105508127D01*
X138890234Y-105499445D01*
X139006742Y-105326063D01*
X139012121Y-105316278D01*
X139096082Y-105125009D01*
X139099647Y-105114417D01*
X139117981Y-105038049D01*
X139153333Y-104976480D01*
X139216360Y-104943797D01*
X139287051Y-104950378D01*
X139342962Y-104994132D01*
X139366500Y-105067463D01*
X139366500Y-106615027D01*
X139346498Y-106683148D01*
X139292842Y-106729641D01*
X139222567Y-106739744D01*
X139204457Y-106737140D01*
X139204446Y-106737139D01*
X139200000Y-106736500D01*
X138200000Y-106736500D01*
X138126921Y-106741727D01*
X138116500Y-106744787D01*
X138107015Y-106747572D01*
X138053588Y-106751393D01*
X137954448Y-106737139D01*
X137954441Y-106737138D01*
X137950000Y-106736500D01*
X137400000Y-106736500D01*
X137399542Y-106736533D01*
X137397341Y-106736565D01*
X137339090Y-106736209D01*
X137339084Y-106736209D01*
X137334603Y-106736182D01*
X137190353Y-106755941D01*
X137153922Y-106766353D01*
X137082929Y-106765841D01*
X137030203Y-106734299D01*
X136403391Y-106107487D01*
X136396031Y-106099399D01*
X136391973Y-106093005D01*
X136343121Y-106047130D01*
X136340280Y-106044376D01*
X136319966Y-106024062D01*
X136316555Y-106021417D01*
X136307533Y-106013711D01*
X136281077Y-105988867D01*
X136275301Y-105983443D01*
X136268357Y-105979626D01*
X136268355Y-105979624D01*
X136257547Y-105973682D01*
X136241023Y-105962828D01*
X136231286Y-105955275D01*
X136231285Y-105955275D01*
X136225023Y-105950417D01*
X136184447Y-105932858D01*
X136173790Y-105927637D01*
X136161843Y-105921069D01*
X136135048Y-105906338D01*
X136127365Y-105904366D01*
X136127364Y-105904365D01*
X136115432Y-105901301D01*
X136096728Y-105894897D01*
X136085415Y-105890001D01*
X136085408Y-105889999D01*
X136078136Y-105886852D01*
X136070312Y-105885613D01*
X136070309Y-105885612D01*
X136034465Y-105879935D01*
X136022844Y-105877528D01*
X135985782Y-105868013D01*
X135985781Y-105868013D01*
X135980025Y-105866535D01*
X135979469Y-105866500D01*
X135959548Y-105866500D01*
X135939838Y-105864949D01*
X135927886Y-105863056D01*
X135927885Y-105863056D01*
X135920056Y-105861816D01*
X135912164Y-105862562D01*
X135876418Y-105865941D01*
X135864560Y-105866500D01*
X135693753Y-105866500D01*
X135625632Y-105846498D01*
X135588381Y-105809585D01*
X135583784Y-105802574D01*
X135566551Y-105776289D01*
X135447847Y-105663840D01*
X135412149Y-105602471D01*
X135408500Y-105572367D01*
X135408500Y-104990679D01*
X136166601Y-104990679D01*
X136227123Y-105187405D01*
X136231344Y-105197751D01*
X136327151Y-105383373D01*
X136333136Y-105392804D01*
X136460296Y-105558521D01*
X136467860Y-105566747D01*
X136622353Y-105707325D01*
X136631264Y-105714088D01*
X136808201Y-105825080D01*
X136818171Y-105830161D01*
X137011973Y-105908069D01*
X137022672Y-105911300D01*
X137228182Y-105953858D01*
X137237321Y-105955061D01*
X137286467Y-105957895D01*
X137290113Y-105958000D01*
X137377885Y-105958000D01*
X137393124Y-105953525D01*
X137394329Y-105952135D01*
X137396000Y-105944452D01*
X137396000Y-104997115D01*
X137391525Y-104981876D01*
X137390135Y-104980671D01*
X137382452Y-104979000D01*
X136181757Y-104979000D01*
X136167777Y-104983105D01*
X136166601Y-104990679D01*
X135408500Y-104990679D01*
X135408500Y-104453384D01*
X136172072Y-104453384D01*
X136172777Y-104467470D01*
X136181656Y-104471000D01*
X137377885Y-104471000D01*
X137393124Y-104466525D01*
X137394329Y-104465135D01*
X137396000Y-104457452D01*
X137396000Y-103510115D01*
X137391525Y-103494876D01*
X137390135Y-103493671D01*
X137382452Y-103492000D01*
X137321779Y-103492000D01*
X137316184Y-103492249D01*
X137161364Y-103506067D01*
X137150350Y-103508049D01*
X136948879Y-103563165D01*
X136938406Y-103567059D01*
X136749869Y-103656987D01*
X136740254Y-103662673D01*
X136570624Y-103784564D01*
X136562158Y-103791872D01*
X136416796Y-103941873D01*
X136409766Y-103950555D01*
X136293258Y-104123937D01*
X136287879Y-104133722D01*
X136203918Y-104324991D01*
X136200353Y-104335583D01*
X136172072Y-104453384D01*
X135408500Y-104453384D01*
X135408500Y-101558595D01*
X135428502Y-101490474D01*
X135482158Y-101443981D01*
X135552432Y-101433877D01*
X135617012Y-101463371D01*
G37*
%TD.AperFunction*%
%TA.AperFunction,Conductor*%
G36*
X131786842Y-98713044D02*
G01*
X131897275Y-98763477D01*
X131914388Y-98768502D01*
X132045554Y-98787361D01*
X132054495Y-98788000D01*
X132164814Y-98788000D01*
X132232935Y-98808002D01*
X132279428Y-98861658D01*
X132290752Y-98910041D01*
X132291438Y-98931864D01*
X132291500Y-98935823D01*
X132291500Y-98964578D01*
X132291996Y-98968503D01*
X132291996Y-98968504D01*
X132292039Y-98968843D01*
X132292972Y-98980687D01*
X132294361Y-99024883D01*
X132296573Y-99032495D01*
X132300012Y-99044333D01*
X132304022Y-99063695D01*
X132306560Y-99083788D01*
X132309476Y-99091153D01*
X132309477Y-99091157D01*
X132322837Y-99124901D01*
X132326681Y-99136128D01*
X132339014Y-99178578D01*
X132343052Y-99185406D01*
X132349323Y-99196011D01*
X132358019Y-99213762D01*
X132362558Y-99225226D01*
X132365478Y-99232600D01*
X132379838Y-99252364D01*
X132391465Y-99268367D01*
X132397983Y-99278290D01*
X132420486Y-99316341D01*
X132420855Y-99316759D01*
X132434938Y-99330842D01*
X132447772Y-99345867D01*
X132459554Y-99362083D01*
X132484291Y-99382547D01*
X132493335Y-99390029D01*
X132502115Y-99398019D01*
X134104595Y-101000499D01*
X134138621Y-101062811D01*
X134141500Y-101089594D01*
X134141500Y-103493500D01*
X134121498Y-103561621D01*
X134067842Y-103608114D01*
X134015500Y-103619500D01*
X134000000Y-103619500D01*
X133959627Y-103627531D01*
X133949309Y-103634425D01*
X133948218Y-103634877D01*
X133877628Y-103642466D01*
X133851782Y-103634877D01*
X133850691Y-103634425D01*
X133840373Y-103627531D01*
X133800000Y-103619500D01*
X133350000Y-103619500D01*
X133309627Y-103627531D01*
X133299309Y-103634425D01*
X133298218Y-103634877D01*
X133227628Y-103642466D01*
X133201782Y-103634877D01*
X133200691Y-103634425D01*
X133190373Y-103627531D01*
X133150000Y-103619500D01*
X133035422Y-103619500D01*
X132967301Y-103599498D01*
X132920808Y-103545842D01*
X132909484Y-103497457D01*
X132909321Y-103492249D01*
X132908562Y-103468115D01*
X132908500Y-103464158D01*
X132908500Y-103435422D01*
X132907961Y-103431151D01*
X132907028Y-103419313D01*
X132906316Y-103396640D01*
X132905639Y-103375117D01*
X132899987Y-103355661D01*
X132895978Y-103336302D01*
X132894434Y-103324079D01*
X132894434Y-103324078D01*
X132893440Y-103316212D01*
X132878463Y-103278383D01*
X132877168Y-103275111D01*
X132873323Y-103263882D01*
X132863199Y-103229035D01*
X132863198Y-103229034D01*
X132860987Y-103221422D01*
X132850674Y-103203983D01*
X132841978Y-103186231D01*
X132837442Y-103174775D01*
X132834522Y-103167400D01*
X132808533Y-103131629D01*
X132802016Y-103121708D01*
X132789247Y-103100117D01*
X132779514Y-103083659D01*
X132779145Y-103083241D01*
X132765062Y-103069158D01*
X132752228Y-103054133D01*
X132740446Y-103037917D01*
X132706664Y-103009970D01*
X132697885Y-103001981D01*
X131053391Y-101357487D01*
X131046031Y-101349399D01*
X131041973Y-101343005D01*
X130993121Y-101297130D01*
X130990280Y-101294376D01*
X130969966Y-101274062D01*
X130966555Y-101271417D01*
X130957533Y-101263711D01*
X130931077Y-101238867D01*
X130925301Y-101233443D01*
X130918357Y-101229626D01*
X130918355Y-101229624D01*
X130907547Y-101223682D01*
X130891023Y-101212828D01*
X130881286Y-101205275D01*
X130881285Y-101205275D01*
X130875023Y-101200417D01*
X130834447Y-101182858D01*
X130823790Y-101177637D01*
X130785048Y-101156338D01*
X130777365Y-101154366D01*
X130777364Y-101154365D01*
X130765432Y-101151301D01*
X130746728Y-101144897D01*
X130735415Y-101140001D01*
X130735408Y-101139999D01*
X130728136Y-101136852D01*
X130720312Y-101135613D01*
X130720309Y-101135612D01*
X130684465Y-101129935D01*
X130672844Y-101127528D01*
X130635782Y-101118013D01*
X130635781Y-101118013D01*
X130630025Y-101116535D01*
X130629469Y-101116500D01*
X130609548Y-101116500D01*
X130589838Y-101114949D01*
X130577886Y-101113056D01*
X130577885Y-101113056D01*
X130570056Y-101111816D01*
X130562164Y-101112562D01*
X130526418Y-101115941D01*
X130514560Y-101116500D01*
X127064594Y-101116500D01*
X126996473Y-101096498D01*
X126975499Y-101079595D01*
X126744499Y-100848595D01*
X126710473Y-100786283D01*
X126715538Y-100715468D01*
X126758085Y-100658632D01*
X126824605Y-100633821D01*
X126833594Y-100633500D01*
X129921616Y-100633500D01*
X129932520Y-100634014D01*
X129939911Y-100635666D01*
X129947837Y-100635417D01*
X129947838Y-100635417D01*
X130006866Y-100633562D01*
X130010823Y-100633500D01*
X130039578Y-100633500D01*
X130043845Y-100632961D01*
X130055687Y-100632028D01*
X130087335Y-100631033D01*
X130091960Y-100630888D01*
X130099883Y-100630639D01*
X130119334Y-100624988D01*
X130138695Y-100620978D01*
X130141420Y-100620634D01*
X130150930Y-100619433D01*
X130150933Y-100619432D01*
X130158788Y-100618440D01*
X130166153Y-100615524D01*
X130166157Y-100615523D01*
X130199901Y-100602163D01*
X130211130Y-100598318D01*
X130253578Y-100585986D01*
X130264615Y-100579459D01*
X130271011Y-100575677D01*
X130288762Y-100566981D01*
X130300226Y-100562442D01*
X130300229Y-100562440D01*
X130307600Y-100559522D01*
X130343368Y-100533535D01*
X130353291Y-100527016D01*
X130391341Y-100504514D01*
X130391759Y-100504145D01*
X130405842Y-100490062D01*
X130420867Y-100477228D01*
X130437083Y-100465446D01*
X130465030Y-100431664D01*
X130473019Y-100422885D01*
X131367513Y-99528391D01*
X131375601Y-99521031D01*
X131381995Y-99516973D01*
X131427870Y-99468121D01*
X131430624Y-99465280D01*
X131450938Y-99444966D01*
X131453583Y-99441555D01*
X131461289Y-99432533D01*
X131486133Y-99406077D01*
X131491557Y-99400301D01*
X131495376Y-99393355D01*
X131501318Y-99382547D01*
X131512172Y-99366023D01*
X131519725Y-99356286D01*
X131519725Y-99356285D01*
X131524583Y-99350023D01*
X131542142Y-99309447D01*
X131547363Y-99298790D01*
X131551583Y-99291114D01*
X131568662Y-99260048D01*
X131570635Y-99252364D01*
X131573699Y-99240432D01*
X131580103Y-99221728D01*
X131584999Y-99210415D01*
X131585001Y-99210408D01*
X131588148Y-99203136D01*
X131590096Y-99190840D01*
X131595065Y-99159465D01*
X131597472Y-99147844D01*
X131606987Y-99110782D01*
X131606987Y-99110781D01*
X131608465Y-99105025D01*
X131608500Y-99104469D01*
X131608500Y-99084548D01*
X131610051Y-99064838D01*
X131611944Y-99052886D01*
X131611944Y-99052885D01*
X131613184Y-99045056D01*
X131609059Y-99001417D01*
X131608500Y-98989560D01*
X131608500Y-98827658D01*
X131628502Y-98759537D01*
X131682158Y-98713044D01*
X131752432Y-98702940D01*
X131786842Y-98713044D01*
G37*
%TD.AperFunction*%
%TA.AperFunction,Conductor*%
G36*
X137034316Y-95710517D02*
G01*
X137089218Y-95746004D01*
X137089796Y-95746846D01*
X137095466Y-95751898D01*
X137095468Y-95751900D01*
X137197987Y-95843241D01*
X137235543Y-95903491D01*
X137234563Y-95974481D01*
X137195358Y-96033671D01*
X137147416Y-96058851D01*
X136948879Y-96113165D01*
X136938406Y-96117059D01*
X136749869Y-96206987D01*
X136740254Y-96212673D01*
X136570624Y-96334564D01*
X136562158Y-96341872D01*
X136416796Y-96491873D01*
X136409766Y-96500555D01*
X136293258Y-96673937D01*
X136287879Y-96683722D01*
X136203919Y-96874988D01*
X136200353Y-96885583D01*
X136172072Y-97003384D01*
X136172777Y-97017470D01*
X136181656Y-97021000D01*
X137778000Y-97021000D01*
X137846121Y-97041002D01*
X137892614Y-97094658D01*
X137904000Y-97147000D01*
X137904000Y-98027960D01*
X137887120Y-98090958D01*
X137865476Y-98128446D01*
X137846772Y-98186012D01*
X137809388Y-98301069D01*
X137806462Y-98310073D01*
X137805772Y-98316636D01*
X137805772Y-98316637D01*
X137789548Y-98471002D01*
X137786500Y-98500000D01*
X137787190Y-98506565D01*
X137797364Y-98603360D01*
X137806462Y-98689927D01*
X137808502Y-98696205D01*
X137808502Y-98696206D01*
X137855664Y-98841356D01*
X137857691Y-98912324D01*
X137831057Y-98962803D01*
X137826671Y-98967864D01*
X137825000Y-98975548D01*
X137825000Y-99475000D01*
X137822979Y-99475000D01*
X137822979Y-99520999D01*
X137784595Y-99580725D01*
X137720014Y-99610218D01*
X137702083Y-99611500D01*
X137501000Y-99611500D01*
X137432879Y-99591498D01*
X137386386Y-99537842D01*
X137375000Y-99485500D01*
X137375000Y-98980115D01*
X137370525Y-98964876D01*
X137369135Y-98963671D01*
X137361452Y-98962000D01*
X136952257Y-98962000D01*
X136947750Y-98962161D01*
X136883731Y-98966740D01*
X136870509Y-98969126D01*
X136745542Y-99005819D01*
X136729308Y-99013233D01*
X136621640Y-99082426D01*
X136608153Y-99094112D01*
X136524338Y-99190840D01*
X136514693Y-99205848D01*
X136461523Y-99322275D01*
X136456498Y-99339388D01*
X136437000Y-99475000D01*
X136435958Y-99474850D01*
X136412843Y-99536816D01*
X136356005Y-99579359D01*
X136285189Y-99584420D01*
X136222884Y-99550396D01*
X134895405Y-98222917D01*
X134861379Y-98160605D01*
X134858500Y-98133822D01*
X134858500Y-97540679D01*
X136166601Y-97540679D01*
X136227123Y-97737405D01*
X136231344Y-97747751D01*
X136327151Y-97933373D01*
X136333136Y-97942804D01*
X136460296Y-98108521D01*
X136467860Y-98116747D01*
X136622353Y-98257325D01*
X136631264Y-98264088D01*
X136808201Y-98375080D01*
X136818171Y-98380161D01*
X137011973Y-98458069D01*
X137022672Y-98461300D01*
X137228182Y-98503858D01*
X137237321Y-98505061D01*
X137286467Y-98507895D01*
X137290113Y-98508000D01*
X137377885Y-98508000D01*
X137393124Y-98503525D01*
X137394329Y-98502135D01*
X137396000Y-98494452D01*
X137396000Y-97547115D01*
X137391525Y-97531876D01*
X137390135Y-97530671D01*
X137382452Y-97529000D01*
X136181757Y-97529000D01*
X136167777Y-97533105D01*
X136166601Y-97540679D01*
X134858500Y-97540679D01*
X134858500Y-97360422D01*
X134843440Y-97241212D01*
X134784522Y-97092400D01*
X134779863Y-97085988D01*
X134779860Y-97085982D01*
X134779347Y-97085276D01*
X134779116Y-97084629D01*
X134776042Y-97079037D01*
X134776944Y-97078541D01*
X134755488Y-97018408D01*
X134771567Y-96949257D01*
X134822481Y-96899776D01*
X134877324Y-96885276D01*
X134914601Y-96884105D01*
X134931867Y-96883562D01*
X134935823Y-96883500D01*
X134964578Y-96883500D01*
X134968845Y-96882961D01*
X134980687Y-96882028D01*
X135012335Y-96881033D01*
X135016960Y-96880888D01*
X135024883Y-96880639D01*
X135044334Y-96874988D01*
X135063695Y-96870978D01*
X135066420Y-96870634D01*
X135075930Y-96869433D01*
X135075933Y-96869432D01*
X135083788Y-96868440D01*
X135091153Y-96865524D01*
X135091157Y-96865523D01*
X135124901Y-96852163D01*
X135136130Y-96848318D01*
X135178578Y-96835986D01*
X135185406Y-96831948D01*
X135196011Y-96825677D01*
X135213762Y-96816981D01*
X135225226Y-96812442D01*
X135225229Y-96812440D01*
X135232600Y-96809522D01*
X135268368Y-96783535D01*
X135278291Y-96777016D01*
X135316341Y-96754514D01*
X135316759Y-96754145D01*
X135330842Y-96740062D01*
X135345867Y-96727228D01*
X135362083Y-96715446D01*
X135390030Y-96681664D01*
X135398019Y-96672885D01*
X136050499Y-96020405D01*
X136112811Y-95986379D01*
X136139594Y-95983500D01*
X136416317Y-95983500D01*
X136545194Y-95967904D01*
X136705562Y-95907306D01*
X136751820Y-95875514D01*
X136840587Y-95814506D01*
X136840589Y-95814505D01*
X136846846Y-95810204D01*
X136855850Y-95800099D01*
X136903076Y-95747093D01*
X136963326Y-95709537D01*
X137034316Y-95710517D01*
G37*
%TD.AperFunction*%
%TA.AperFunction,Conductor*%
G36*
X127892121Y-97195002D02*
G01*
X127938614Y-97248658D01*
X127950000Y-97301000D01*
X127950000Y-98769885D01*
X127954384Y-98784814D01*
X127965785Y-98786871D01*
X128016269Y-98783260D01*
X128029491Y-98780874D01*
X128154458Y-98744181D01*
X128170692Y-98736767D01*
X128278360Y-98667574D01*
X128291847Y-98655888D01*
X128375662Y-98559160D01*
X128385307Y-98544152D01*
X128426405Y-98454158D01*
X128472898Y-98400502D01*
X128541019Y-98380500D01*
X128600000Y-98380500D01*
X128640373Y-98372469D01*
X128650691Y-98365575D01*
X128651782Y-98365123D01*
X128722372Y-98357534D01*
X128748218Y-98365123D01*
X128749309Y-98365575D01*
X128759627Y-98372469D01*
X128800000Y-98380500D01*
X129250000Y-98380500D01*
X129290373Y-98372469D01*
X129300691Y-98365575D01*
X129301782Y-98365123D01*
X129372372Y-98357534D01*
X129398218Y-98365123D01*
X129399309Y-98365575D01*
X129409627Y-98372469D01*
X129450000Y-98380500D01*
X129507440Y-98380500D01*
X129575561Y-98400502D01*
X129622054Y-98454158D01*
X129628336Y-98471002D01*
X129630819Y-98479459D01*
X129638232Y-98495691D01*
X129707426Y-98603360D01*
X129719112Y-98616847D01*
X129815840Y-98700662D01*
X129830848Y-98710307D01*
X129947275Y-98763477D01*
X129964395Y-98768504D01*
X130039778Y-98779343D01*
X130104359Y-98808836D01*
X130142742Y-98868562D01*
X130142742Y-98939559D01*
X130110941Y-98993155D01*
X129774501Y-99329595D01*
X129712189Y-99363621D01*
X129685406Y-99366500D01*
X126914594Y-99366500D01*
X126846473Y-99346498D01*
X126825499Y-99329595D01*
X126089379Y-98593475D01*
X126055353Y-98531163D01*
X126060418Y-98460348D01*
X126102965Y-98403512D01*
X126169485Y-98378701D01*
X126190823Y-98378987D01*
X126193934Y-98379293D01*
X126200000Y-98380500D01*
X126650000Y-98380500D01*
X126690373Y-98372469D01*
X126700691Y-98365575D01*
X126701782Y-98365123D01*
X126772372Y-98357534D01*
X126798218Y-98365123D01*
X126799309Y-98365575D01*
X126809627Y-98372469D01*
X126850000Y-98380500D01*
X126907440Y-98380500D01*
X126975561Y-98400502D01*
X127022054Y-98454158D01*
X127028336Y-98471002D01*
X127030819Y-98479459D01*
X127038232Y-98495691D01*
X127107426Y-98603360D01*
X127119112Y-98616847D01*
X127215840Y-98700662D01*
X127230848Y-98710307D01*
X127347275Y-98763477D01*
X127364388Y-98768502D01*
X127482071Y-98785422D01*
X127496027Y-98783416D01*
X127500000Y-98769885D01*
X127500000Y-97301000D01*
X127520002Y-97232879D01*
X127573658Y-97186386D01*
X127626000Y-97175000D01*
X127824000Y-97175000D01*
X127892121Y-97195002D01*
G37*
%TD.AperFunction*%
%TA.AperFunction,Conductor*%
G36*
X132208621Y-93353982D02*
G01*
X132255114Y-93407638D01*
X132266500Y-93459980D01*
X132266500Y-93799135D01*
X132281140Y-93924704D01*
X132283636Y-93931581D01*
X132283637Y-93931584D01*
X132311462Y-94008241D01*
X132339006Y-94084122D01*
X132362827Y-94120455D01*
X132396060Y-94171144D01*
X132416683Y-94239080D01*
X132394154Y-94312135D01*
X132389110Y-94317796D01*
X132385558Y-94324505D01*
X132385557Y-94324506D01*
X132313770Y-94460088D01*
X132308890Y-94469304D01*
X132307039Y-94476673D01*
X132297607Y-94514223D01*
X132267126Y-94635575D01*
X132266763Y-94641338D01*
X132266763Y-94641341D01*
X132266625Y-94643530D01*
X132266624Y-94643546D01*
X132266500Y-94645525D01*
X132266500Y-95040020D01*
X132246498Y-95108141D01*
X132192842Y-95154634D01*
X132140500Y-95166020D01*
X129578863Y-95166020D01*
X129567959Y-95165506D01*
X129560568Y-95163854D01*
X129552642Y-95164103D01*
X129552641Y-95164103D01*
X129493614Y-95165958D01*
X129489656Y-95166020D01*
X129482242Y-95166020D01*
X129414121Y-95146018D01*
X129367628Y-95092362D01*
X129357524Y-95022088D01*
X129390769Y-94953367D01*
X129405922Y-94937371D01*
X129414635Y-94925724D01*
X129496043Y-94785571D01*
X129501837Y-94772246D01*
X129549068Y-94616300D01*
X129551516Y-94603677D01*
X129557751Y-94533816D01*
X129558000Y-94528221D01*
X129558000Y-94272115D01*
X129553525Y-94256876D01*
X129552135Y-94255671D01*
X129544452Y-94254000D01*
X128422000Y-94254000D01*
X128353879Y-94233998D01*
X128307386Y-94180342D01*
X128296000Y-94128000D01*
X128296000Y-93872000D01*
X128316002Y-93803879D01*
X128369658Y-93757386D01*
X128422000Y-93746000D01*
X129539885Y-93746000D01*
X129555124Y-93741525D01*
X129556329Y-93740135D01*
X129558000Y-93732452D01*
X129558000Y-93485777D01*
X129557576Y-93478473D01*
X129557120Y-93474564D01*
X129569103Y-93404586D01*
X129617016Y-93352195D01*
X129682273Y-93333980D01*
X132140500Y-93333980D01*
X132208621Y-93353982D01*
G37*
%TD.AperFunction*%
%TD*%
M02*
